<?xml version="1.0" encoding="UTF-8" standalone="no"?>
<svg
   xmlns:dc="http://purl.org/dc/elements/1.1/"
   xmlns:cc="http://creativecommons.org/ns#"
   xmlns:rdf="http://www.w3.org/1999/02/22-rdf-syntax-ns#"
   xmlns:svg="http://www.w3.org/2000/svg"
   xmlns="http://www.w3.org/2000/svg"
   xmlns:sodipodi="http://sodipodi.sourceforge.net/DTD/sodipodi-0.dtd"
   xmlns:inkscape="http://www.inkscape.org/namespaces/inkscape"
   width="69.067062mm"
   height="55.334538mm"
   viewBox="0 0 69.067062 55.334538"
   version="1.1"
   id="svg3772"
   inkscape:version="1.0.1 (3bc2e813f5, 2020-09-07)"
   sodipodi:docname="Flecha.svg">
  <defs
     id="defs3766" />
  <sodipodi:namedview
     id="base"
     pagecolor="#ffffff"
     bordercolor="#666666"
     borderopacity="1.0"
     inkscape:pageopacity="0.0"
     inkscape:pageshadow="2"
     inkscape:zoom="0.35"
     inkscape:cx="144.80616"
     inkscape:cy="501.71208"
     inkscape:document-units="mm"
     inkscape:current-layer="layer1"
     inkscape:document-rotation="0"
     showgrid="false"
     fit-margin-left="0.5"
     fit-margin-top="0.5"
     fit-margin-bottom="0.5"
     fit-margin-right="0.5"
     inkscape:window-width="1258"
     inkscape:window-height="1040"
     inkscape:window-x="208"
     inkscape:window-y="0"
     inkscape:window-maximized="0" />
  <metadata
     id="metadata3769">
    <rdf:RDF>
      <cc:Work
         rdf:about="">
        <dc:format>image/svg+xml</dc:format>
        <dc:type
           rdf:resource="http://purl.org/dc/dcmitype/StillImage" />
        <dc:title></dc:title>
      </cc:Work>
    </rdf:RDF>
  </metadata>
  <g
     inkscape:label="Capa 1"
     inkscape:groupmode="layer"
     id="layer1"
     transform="translate(-67.520037,-15.422013)">
    <g
       id="g2142"
       transform="matrix(0.35277777,0,0,-0.35277777,125.00423,63.355101)">
      <path
         d="M 0,0 C -1.094,-0.157 -1.344,0.536 -1.872,0.944 -2.059,0.821 -2.255,0.7 -2.571,0.71 -2.669,0.144 -2.152,0.192 -2.338,-0.468 -2.669,-0.45 -3.002,-0.433 -3.042,-0.706 -3.12,-0.192 -3.606,1.208 -4.68,1.417 -2.778,2.087 3.78,4.396 3.982,1.884 4.202,-1.02 -0.234,3.288 0,0 m 2.575,-4.01 c -0.859,-0.05 -0.901,-0.324 -1.641,0 0.184,0.684 0.556,1.167 0.938,1.65 -0.156,0.317 -0.497,0.439 -0.938,0.477 v 1.177 C 2,-0.63 2.233,-0.464 3.04,-0.941 2.221,-1.835 1.928,-2.603 2.575,-4.01 m -2.815,-9.202 c 0.504,0.104 0.453,-0.34 0.473,-0.709 -0.294,0.102 -0.478,0.303 -0.473,0.709 m -0.704,9.675 c -0.179,0.843 0.505,1.169 0.944,0.706 -0.206,-0.342 -0.187,-0.915 -0.944,-0.706 m -6.782,2.831 c -0.496,0.133 -0.842,-1.41 0,-1.177 -0.029,-0.522 -0.585,-0.512 -1.164,-0.477 v 0.946 c -2.035,0.239 -4.517,-0.6 -5.15,1.414 2.511,0.993 7.099,2.425 9.36,0.472 -0.338,-0.985 -1.992,-1.678 -3.046,-1.178 m -4.445,-6.85 c -0.047,-0.082 -0.084,-0.146 -0.117,-0.199 0.051,0.084 0.104,0.187 0.155,0.264 -0.013,-0.018 -0.018,-0.033 -0.038,-0.065 m -2.106,10.625 c 0.051,0.703 0.975,-0.229 0,0 m 5.616,-0.236 c -0.363,-1.858 -3.045,-0.206 -4.446,-0.238 0.271,1.761 3.052,0.218 4.446,0.238 m 0.474,4.72 c -3.779,1.35 2.466,4.149 0,0 M -20.125,-2.595 c 0.089,1.619 0.625,1.338 1.872,1.654 -0.597,-0.581 -1.041,-1.315 -1.872,-1.654 m -0.7,2.834 h 0.937 v -1.18 c -0.676,0.024 -1.119,0.296 -0.937,1.18 M -23.4,-3.537 c -0.61,0.327 -1.409,0.467 -2.104,0.706 0.381,1.128 3.045,0.24 2.104,-0.706 m -4.218,2.123 c 0.355,0.37 1.335,0.343 1.169,-0.469 -0.759,0.04 -1.121,-0.559 -1.169,0.469 m -2.572,-4.247 c 0.048,0.705 0.977,-0.223 0,0 m -11.109,90.098 c 1.374,0.886 3.969,0.791 5.379,0 -1.558,-0.829 -3.712,-1.359 -5.379,0 m 2.454,-95.762 c 0.788,-0.076 0.657,-1.072 0.7,-1.887 -1.605,-0.398 -1.211,1.338 -0.7,1.887 m -2.105,9.204 c 0.879,0.449 1.484,0.063 2.338,-0.474 -0.776,-0.942 0.335,-1.353 -0.466,-2.123 -1.04,0.442 -1.352,1.625 -1.872,2.597 m -2.696,90.331 c 0.055,0.705 0.972,-0.225 0,0 m -11.296,5.027 c 0.186,0.756 0.819,1.067 1.872,0.948 0.046,-1.538 -0.967,-1.412 -1.872,-0.948 m -1.565,20.863 c -0.73,1.895 0.291,3.71 2.353,3.538 0.489,-1.578 -0.171,-3.888 -2.353,-3.538 m -0.928,-32.093 c 0.291,2.854 3.164,-0.045 0,0 m -0.704,0.941 c 0.05,0.709 0.967,-0.22 0,0 m -0.465,19.826 c 0.697,0.236 0.406,-0.523 0.465,-0.945 h -0.699 c -0.101,0.493 0.153,0.622 0.234,0.945 m -3.275,13.451 c 0.299,-1.65 -0.584,-2.083 -1.173,-2.829 -2.579,1.482 1.845,5.667 2.807,2.829 z M -62.356,82.48 c 0.03,0.602 0.786,0.468 1.407,0.468 0.227,-0.849 -0.925,-0.326 -1.407,-0.468 m 1.176,27.612 c -0.105,-0.849 -0.746,-1.14 -1.643,-1.186 -0.304,1.218 0.881,1.78 1.643,1.186 m -4.21,-15.345 c 0.098,1.001 1.55,0.643 2.338,0.953 -0.19,-0.765 -1.469,-1.662 -2.338,-0.953 m -0.706,19.353 c -0.344,0.206 -0.742,0.352 -0.704,0.948 h 1.177 c -0.124,-0.352 -0.349,-0.596 -0.473,-0.948 m -0.936,-14.633 v 0.477 h 0.936 c 0.24,-0.712 -0.521,-0.42 -0.936,-0.477 m 2.104,25.961 c -0.157,-1.181 -0.957,-1.714 -2.339,-1.651 -1.521,1.869 1.306,2.691 2.339,1.651 M -68.2,81.772 c -0.685,0.044 -0.569,1.122 0.23,0.94 0.096,-0.491 -0.154,-0.623 -0.23,-0.94 m -5.384,14.396 c 0.476,2.194 3.291,2.033 4.209,3.776 0.466,-0.006 0.296,-0.646 0.937,-0.477 -1.608,-1.206 -3.263,-2.369 -5.146,-3.299 m 2.912,-106.216 c 0.712,0.87 0.78,-0.721 0,0 m -1.17,3.768 c 0.062,2.017 -0.106,3.004 1.633,3.07 0.396,-1.102 -0.375,-2.869 -1.633,-3.07 m -1.505,90.648 c 0.039,0.684 1.108,0.569 0.931,-0.234 -0.486,-0.106 -0.613,0.156 -0.931,0.234 m -1.64,9.675 c -0.457,-0.274 -1.308,-0.777 -1.872,-0.237 0.389,0.629 1.19,0.845 1.64,1.416 0.504,0.041 0.104,-0.838 0.232,-1.179 m -3.511,7.549 c -0.173,0.38 -1.145,-0.052 -0.939,0.708 0.613,0.064 1.169,0.08 0.939,-0.708 m 9.123,5.665 c 0.401,-1.12 -1.343,-1.299 -1.169,-0.238 0.665,-0.196 0.607,0.334 1.169,0.238 m 0.471,-5.19 h -0.471 c -0.065,0.383 0.216,0.405 0.237,0.707 0.493,-0.13 0.498,-0.37 0.234,-0.707 m 4.676,13.924 c -0.092,-0.591 -0.905,-0.017 -0.7,0.467 0.516,0.131 0.331,-0.45 0.7,-0.467 M -95.197,-4.729 c 0.944,0.285 1.913,0.828 1.871,-0.708 -0.515,-0.402 -1.909,-0.172 -1.871,0.708 m -1.177,-6.373 c -0.566,-0.027 -1.114,-0.031 -1.397,0.238 0.03,1.365 2.192,0.963 1.397,-0.238 m -1.075,83.907 c 2.225,0.811 0.656,-2.429 0,0 m -23.768,-79.318 c 0.46,2.2 4.402,1.801 6.315,1.178 -0.273,-2.174 -4.601,-1.926 -6.315,-1.178 m -1.147,15.36 h 0.934 c 0.049,-0.779 -1.1,-0.934 -0.934,0 m -2.581,-2.127 h -0.47 v 0.475 h 0.47 z m -3.506,-5.662 c -0.105,0.492 0.161,0.626 0.238,0.945 0.34,-0.121 0.584,-0.348 0.923,-0.47 -0.031,-0.519 -0.583,-0.509 -1.161,-0.475 m -4.448,9.205 c 0.392,0.83 0.729,-0.774 0,0 m -7.722,-12.508 c 1.092,0.157 1.038,-0.844 1.872,-0.947 -0.193,-0.78 -1.956,-0.008 -1.872,0.947 M 27.205,-13.59 c 0.224,-0.028 0.45,-0.056 0.683,-0.084 0.175,0.7 0.005,1.495 -0.311,2.304 l 3.819,-6.148 h 0.02 c -1.285,2.053 -2.561,4.107 -3.847,6.156 -0.751,1.908 -2.446,3.922 -3.226,5.168 -1.8,2.892 -3.605,5.789 -5.42,8.681 -1.598,2.556 -3.07,6.265 -5.047,8.448 -0.182,0.198 -5.086,3.902 -5.076,1.809 -0.008,1.661 0.65,3.431 0.68,5.168 -3.057,-0.364 -1.785,1.3 -2.56,2.906 -0.14,0.286 -1.355,2.201 -1.394,2.363 -1.172,5.302 -3.414,6.947 -6.489,11.15 -3.508,4.801 -6.474,10.211 -9.562,15.305 -0.339,0.557 -5.448,7.638 -4.62,7.605 -0.301,0.014 -0.612,0.037 -0.915,0.069 -0.858,2.447 -1.497,3.074 -1.693,6.184 -3.732,-0.854 -10.256,14.149 -12.19,17.246 -2.995,4.786 -6.184,11.903 -10.028,17.618 h -1.104 c 0.04,0.276 -0.046,0.422 -0.224,0.475 0.12,0.328 0.361,0.514 0.604,0.578 -1.773,2.5 -3.684,4.678 -5.785,6.16 -0.039,0.031 -2.838,1.169 -2.42,0.6 -1.483,1.982 -1.008,4.533 -1.083,7.392 -0.822,-0.869 -1.857,-2.029 -2.533,-2.864 -0.186,4.621 -0.096,6.335 -2.571,10.292 -0.885,1.412 -1.763,2.822 -2.643,4.232 -0.113,-0.581 -0.391,-1.009 -0.642,-1.446 -1.374,-0.409 -1.013,1.814 -0.703,2.361 0.39,0.091 0.625,0.024 0.827,-0.08 -0.583,0.933 -1.167,1.863 -1.751,2.796 -1.181,1.899 -2.534,4.002 -4.012,5.602 -1.857,-2.211 -11.6,-14.701 -12.874,-20.383 0.241,-0.059 0.503,-0.112 0.73,-0.209 -0.244,-0.218 -0.536,-0.383 -0.833,-0.517 -0.084,-0.871 0.084,-1.54 0.655,-1.86 -0.739,0.41 -1.74,0.85 -2.413,1.426 -0.031,-0.002 -0.069,-0.005 -0.1,-0.012 0.175,-0.82 -0.234,-1.867 -0.098,-2.676 -2.907,0.296 -2.081,-2.49 -2.33,-4.549 0.159,1.343 -3.361,-2.853 -3.32,-2.808 -1.668,-2.088 -2.958,-4.587 -4.377,-6.842 -3.481,-5.502 -6.967,-11.004 -10.446,-16.508 -5.474,-8.664 -10.63,-17.494 -16.856,-25.535 -3.132,-4.045 -5.802,-8.56 -8.657,-12.802 -1.033,-1.534 -1.569,-3.256 -2.249,-4.748 -0.446,-0.981 -1.268,-2.772 -1.608,-3.65 -0.465,-1.214 -1.596,-1.718 -1.04,-3.761 -4.352,0.869 -2.505,-1.888 -3.317,-4.123 -0.64,-1.742 -2.495,-1.734 -1.958,-4.394 -4.481,-0.131 -10.497,-14.044 -12.676,-17.498 -4.582,-7.25 -9.165,-14.502 -13.752,-21.751 0.26,0.399 4.435,0.026 4.894,0.03 3.308,0.021 7.842,1.772 10.886,1.395 0.19,-0.023 2.163,-0.867 2.171,-0.867 1.926,0.019 2.207,-1.088 4.656,0.228 1.666,0.904 2.316,3.39 4.12,3.197 2.389,-0.247 4.673,-3.857 7.25,-4.526 2.388,-0.614 4.849,-0.042 7.202,0.164 6.834,0.634 13.682,0.956 20.544,1.118 2.844,0.065 5.767,-0.56 8.467,-0.547 3.014,0.018 5.439,1.888 8.443,2.045 0.994,0.051 1.681,-0.883 2.635,-0.823 3.047,0.206 5.754,1.817 8.841,1.939 h 0.004 c 0.093,0.867 0.443,1.683 0.979,1.801 0.302,-0.088 0.364,-0.415 0.703,-0.477 0.023,-0.55 -0.074,-0.981 -0.185,-1.377 2.701,-0.149 5.451,-0.885 8.041,-1.455 6.355,-1.397 12.605,-1.131 19.112,-1.092 3.203,0.018 5.697,0.821 8.66,1.049 0.428,0.03 2.846,-0.646 3.469,-0.693 0.69,-0.053 4.201,-0.299 4.815,-0.276 2.408,0.088 5.212,0.803 5.935,3.667 0.954,-3.892 7.277,-4.527 13.752,-4.321 -0.286,0.15 -0.521,0.334 -0.652,0.631 0.978,-0.249 2.101,1.384 3.044,0.47 0.042,-0.39 0.019,-0.707 -0.035,-0.998 4.38,0.26 8.536,0.772 10.824,0.79 4.272,0.025 10.796,-2.034 11.538,3.517 -0.742,-5.606 9.561,-3.42 12.746,-3.366 -1.041,1.298 -2.913,2.838 -4.124,3.931"
         style="fill:#1d1d1b;fill-opacity:1;fill-rule:nonzero;stroke:none"
         id="path2144" />
    </g>
  </g>
</svg>
