<?xml version="1.0" encoding="UTF-8" standalone="no"?>
<svg
   xmlns:dc="http://purl.org/dc/elements/1.1/"
   xmlns:cc="http://creativecommons.org/ns#"
   xmlns:rdf="http://www.w3.org/1999/02/22-rdf-syntax-ns#"
   xmlns:svg="http://www.w3.org/2000/svg"
   xmlns="http://www.w3.org/2000/svg"
   xmlns:sodipodi="http://sodipodi.sourceforge.net/DTD/sodipodi-0.dtd"
   xmlns:inkscape="http://www.inkscape.org/namespaces/inkscape"
   width="122.6021mm"
   height="45.811981mm"
   viewBox="0 0 122.6021 45.811981"
   version="1.1"
   id="svg5663"
   inkscape:version="1.0.1 (3bc2e813f5, 2020-09-07)"
   sodipodi:docname="Hamb.svg">
  <defs
     id="defs5657" />
  <sodipodi:namedview
     id="base"
     pagecolor="#ffffff"
     bordercolor="#666666"
     borderopacity="1.0"
     inkscape:pageopacity="0.0"
     inkscape:pageshadow="2"
     inkscape:zoom="0.35"
     inkscape:cx="231.68902"
     inkscape:cy="489.43096"
     inkscape:document-units="mm"
     inkscape:current-layer="layer1"
     inkscape:document-rotation="0"
     showgrid="false"
     fit-margin-left="0.5"
     fit-margin-top="0.5"
     fit-margin-bottom="0.5"
     fit-margin-right="0.5"
     inkscape:window-width="1258"
     inkscape:window-height="1040"
     inkscape:window-x="26"
     inkscape:window-y="0"
     inkscape:window-maximized="0" />
  <metadata
     id="metadata5660">
    <rdf:RDF>
      <cc:Work
         rdf:about="">
        <dc:format>image/svg+xml</dc:format>
        <dc:type
           rdf:resource="http://purl.org/dc/dcmitype/StillImage" />
        <dc:title></dc:title>
      </cc:Work>
    </rdf:RDF>
  </metadata>
  <g
     inkscape:label="Capa 1"
     inkscape:groupmode="layer"
     id="layer1"
     transform="translate(-44.53228,-18.671393)">
    <g
       id="g2334"
       transform="matrix(0.35277777,0,0,-0.35277777,163.81682,19.171393)">
      <path
         d="m 0,0 c -2.9,-0.293 -5.578,-0.705 -7.888,-1.287 -12.481,1.762 -18.811,-2.393 -31.73,-1.557 -11.485,-0.049 -19.622,-0.945 -30.65,-0.07 -3.589,-3.914 -21.459,0.666 -29.642,-1.879 -5.491,-0.478 -8.469,-2.002 -4.28,-2.649 -7.588,-0.154 -5.638,1.533 -11.979,0.856 l 2.138,1.324 c -2.088,0.325 -4.399,1.009 -7.139,0.772 l -3.091,-1.344 c -7.54,1.495 -11.82,-1.155 -20.01,-0.222 5.336,-0.991 -2.442,-0.78 -1.846,-1.868 -1.246,0.525 -6.186,0.791 -4.496,1.192 -6.931,0.408 -13.315,-1.916 -17.262,0.017 l -2.54,-0.6 c -4.341,-0.822 -7.791,0.208 -11.781,0.493 l -0.553,-0.743 c -2.639,-0.419 -7.481,-0.335 -9.779,0.352 -6.943,0.408 -15.624,-1.23 -22.805,-2.109 -7.128,0.771 -4.03,-1.362 -10.471,-1.858 -4.088,0.466 -11.179,-0.592 -13.669,0.455 5.681,0.114 6.468,2.145 12.461,1.717 -2.29,0.686 10.132,0.753 4.791,1.744 -11.521,-1.697 -25.8,-0.156 -36.374,-1.833 0.787,2.028 -13.134,1.199 -17.774,0.922 l -0.298,0.544 c -3.991,0.285 -6.943,0.408 -13.282,-0.269 -7.583,-0.153 -15.064,-0.487 -21.462,0.665 -9.431,1.458 -20.654,-0.783 -24.693,-2.146 11.529,-1.781 22.351,1.184 30.904,-2.121 -7.991,0.57 -8.533,-0.174 -14.674,-1.212 l 3.24,-0.667 -2.637,-0.42 c 1.347,-0.705 -2.144,-1.324 -1.741,-2.047 l 9.581,0.01 c -5.141,0.627 -1.75,1.429 -0.25,2.191 l 4.941,-0.267 c -1.15,0.344 -4.193,0.647 -0.598,1.086 1.985,-0.143 4.628,0.277 6.828,-0.228 l -3.927,-1.544 c 6.03,1.221 10.578,-1.798 16.619,-0.578 l 1.838,-1.61 5.695,0.114 -0.643,-0.56 6.831,-0.23 c 3.693,0.259 4.241,1.001 4.893,1.563 2.846,0.057 5.586,0.296 6.739,-0.048 l -3.304,-0.98 3.051,-0.305 c -2.088,0.324 2.543,0.601 3.293,0.98 6.841,-0.226 4.841,-0.082 9.131,-0.911 4.438,0.638 9.876,-0.534 10.128,0.752 8.096,-0.751 16.722,-0.76 24.415,-0.788 l 3.388,0.801 c 9.131,-0.914 13.274,0.267 22.756,0.46 l -0.748,-0.381 5.188,1.019 c 7.141,-0.77 9.928,1.116 18.222,0.002 8.931,-0.552 12.962,0.812 15.862,2.519 4.33,0.818 9.778,-0.353 13.669,-0.457 l -2.538,-0.602 3.236,-0.666 c 5.595,0.296 5.896,-0.247 13.186,0.449 9.983,-0.713 8.468,2.002 12.712,3.004 l 9.54,-1.638 -0.21,0.362 c 5.64,1.943 4.338,0.819 17.722,0.907 l -0.611,1.085 c 4.502,-1.19 6.439,0.495 12.232,0.431 2.835,0.056 11.532,-1.782 16.523,-0.401 10.183,-1.074 15.111,2.138 23.844,1.948 5.246,-0.809 8.984,1.097 9.986,-0.713 l -0.945,-0.02 1.95,-1.792 0.235,1.288 c 3.154,-0.486 7.692,-0.028 10.394,-1.439 l 7.329,2.346 c -1.799,-0.219 -3.788,-0.078 -5.789,0.066 l 0.202,-0.361 c -1.904,-0.04 -6.535,-0.317 -8.735,0.187 l 2.643,0.421 c -3.039,0.304 -0.504,0.903 0.348,1.105 6.093,-0.609 4.431,0.639 9.083,0.916 1.047,-0.163 3.04,-0.305 2.302,-0.686 2.741,0.238 9.978,-0.713 10.219,0.572 C 7.681,-6.531 7.771,-6.586 7.986,-6.646 7.069,-4.389 3.977,-2.127 0,0"
         style="fill:#1d1d1b;fill-opacity:1;fill-rule:nonzero;stroke:none"
         id="path2336" />
    </g>
    <g
       id="g2338"
       transform="matrix(0.35277777,0,0,-0.35277777,130.10863,38.552123)">
      <path
         d="M 0,0 C -2.621,-0.25 -7.115,0.152 -6.369,1.052 L -6.898,1.604 C -4.671,1.516 4.636,1.498 0,0"
         style="fill:#1d1d1b;fill-opacity:1;fill-rule:nonzero;stroke:none"
         id="path2340" />
    </g>
    <g
       id="g2342"
       transform="matrix(0.35277777,0,0,-0.35277777,130.33053,39.966693)">
      <path
         d="M 0,0 C -2.267,0.31 -0.533,0.553 -0.139,0.889 L 2.979,0.809 C 3.925,0.373 1.307,0.123 0,0"
         style="fill:#1d1d1b;fill-opacity:1;fill-rule:nonzero;stroke:none"
         id="path2344" />
    </g>
    <g
       id="g2346"
       transform="matrix(0.35277777,0,0,-0.35277777,129.86472,42.963893)">
      <path
         d="M 0,0 0.92,-0.215 C 0,0 -1.346,0.098 -2.227,0.088 -2.303,0.535 -0.602,0.998 1.203,0.792 0.814,0.455 -0.954,0.437 0,0"
         style="fill:#1d1d1b;fill-opacity:1;fill-rule:nonzero;stroke:none"
         id="path2348" />
    </g>
    <g
       id="g2350"
       transform="matrix(0.35277777,0,0,-0.35277777,113.87947,39.697923)">
      <path
         d="M 0,0 C -0.676,-1.348 2.292,-3.327 6.043,-4.627 L 4.628,-6.873 c -2.833,1.086 -8.497,0.472 -12.921,0.428 -1.7,-0.464 4.105,-0.741 -0.248,-1.23 -0.493,0.329 -0.137,0.891 -1.059,1.106 -3.895,-0.598 -1.844,-2.365 -10.337,-1.89 l -2.831,1.088 c -14.61,-0.035 -29.827,-1.861 -43.732,-0.772 -2.476,-1.141 -9.629,-0.765 -13.944,-1.479 l -0.103,0.67 c -2.48,-1.14 -6.69,0.268 -9.769,0.125 l -2.759,0.642 c -1.055,1.106 7.894,0.526 5.419,2.174 -5.907,0.945 -9.948,-1.55 -15.002,-0.372 -4.916,0.285 -4.352,-0.49 -7.396,-0.855 -0.781,-0.679 0.989,-0.66 0.67,-1.444 -11.008,-0.445 -11.571,3.12 -21.266,2.801 -0.354,-0.562 -8.101,-1.978 -0.886,-2.8 l 3.431,0.703 2.336,-0.756 c -2.654,-0.028 -7.537,0.036 -6.972,-0.739 -3.498,2.532 -18.231,-2.416 -10.863,1.453 4.531,-0.625 5.844,-0.499 8.781,0.534 -10.23,0.233 -19.246,1.258 -27.672,1.287 l -2.477,-1.141 c -0.177,1.113 -4.283,1.854 -8.311,2.149 -1.734,-0.243 -3.966,-0.151 -3.431,-0.705 -0.783,-0.677 14.681,-0.412 7.459,-2.379 -9.375,0.463 -19.284,1.482 -25.294,3.095 4.39,0.266 7.537,-0.037 12.175,1.461 15.711,1.495 32.727,0.326 47.948,2.153 0.565,-0.776 4.601,-1.071 3.392,-1.864 1.415,-0.544 5.312,0.053 6.368,-1.052 11.787,1.121 25.618,0.478 36.271,0.363 -2.97,1.977 6.442,1.29 9.413,2.102 2.796,-0.866 7.609,-0.481 11.146,-0.448 0.389,0.34 2.585,0.473 2.052,1.026 -2.618,-0.25 -3.571,0.187 -6.26,0.384 1.099,1.46 5.768,-0.054 9.765,-0.127 l -2.088,-0.801 c 6.652,-0.046 14.574,-2.534 20.559,-1.134 l -5.094,1.4 c 7.431,0.633 16.589,-1.286 22.081,0.444 -4.957,0.509 -13.203,-0.579 -13.057,1.32 0.281,1.008 6.05,0.953 8.776,0.534 C -19.29,-1.311 -10.187,2.797 0,0"
         style="fill:#1d1d1b;fill-opacity:1;fill-rule:nonzero;stroke:none"
         id="path2352" />
    </g>
    <g
       id="g2354"
       transform="matrix(0.35277777,0,0,-0.35277777,108.22607,38.534553)">
      <path
         d="m 0,0 c -9.731,-0.098 -4.887,-2.727 -14.229,-2.485 1.17,1.015 -3.389,1.863 -6.506,1.945 -3.009,-0.59 -6.619,-0.18 -9.27,-0.207 -1.807,0.207 -1.559,1.435 1.984,1.473 C -19.282,-1.308 -8.277,1.927 0,0"
         style="fill:#1d1d1b;fill-opacity:1;fill-rule:nonzero;stroke:none"
         id="path2356" />
    </g>
    <g
       id="g2358"
       transform="matrix(0.35277777,0,0,-0.35277777,111.19508,40.512363)">
      <path
         d="m 0,0 c -4.853,-0.16 -3.006,2.201 -7.781,1.596 2.017,1.247 2.649,0.025 7.074,0.07 L -3.258,0.97 Z"
         style="fill:#1d1d1b;fill-opacity:1;fill-rule:nonzero;stroke:none"
         id="path2360" />
    </g>
    <g
       id="g2362"
       transform="matrix(0.35277777,0,0,-0.35277777,97.264838,39.391693)">
      <path
         d="m 0,0 c -3.081,-0.144 -10.258,0.456 -10.47,1.792 -0.459,0.107 0.32,0.785 -1.415,0.544 C -9.159,1.918 -1.166,1.772 0,0"
         style="fill:#1d1d1b;fill-opacity:1;fill-rule:nonzero;stroke:none"
         id="path2364" />
    </g>
    <g
       id="g2366"
       transform="matrix(0.35277777,0,0,-0.35277777,102.09278,41.273043)">
      <path
         d="M 0,0 C -1.733,-0.24 -3.504,-0.258 -6.154,-0.284 -4.421,-0.045 -2.301,0.536 0,0"
         style="fill:#1d1d1b;fill-opacity:1;fill-rule:nonzero;stroke:none"
         id="path2368" />
    </g>
    <g
       id="g2370"
       transform="matrix(0.35277777,0,0,-0.35277777,95.840468,40.271913)">
      <path
         d="M 0,0 C 0.603,-1 -2.62,-0.25 -3.501,-0.258 L -5.345,0.17 C -3.608,0.408 -1.412,0.544 0,0"
         style="fill:#1d1d1b;fill-opacity:1;fill-rule:nonzero;stroke:none"
         id="path2372" />
    </g>
    <g
       id="g2374"
       transform="matrix(0.35277777,0,0,-0.35277777,86.456188,39.223903)">
      <path
         d="M 0,0 C -4.494,0.4 4.672,1.272 -0.672,1.444 L 2.406,1.586 3.537,0.035 Z"
         style="fill:#1d1d1b;fill-opacity:1;fill-rule:nonzero;stroke:none"
         id="path2376" />
    </g>
    <g
       id="g2378"
       transform="matrix(0.35277777,0,0,-0.35277777,84.035148,38.736743)">
      <path
         d="m 0,0 c -1.279,-0.348 -2.588,-0.471 -4.852,-0.159 l 1.243,0.571 C -2.764,0.642 -1.769,-0.018 0,0"
         style="fill:#1d1d1b;fill-opacity:1;fill-rule:nonzero;stroke:none"
         id="path2380" />
    </g>
    <g
       id="g2382"
       transform="matrix(0.35277777,0,0,-0.35277777,86.105318,39.975953)">
      <path
         d="M 0,0 C -2.164,-0.356 -1.841,0.428 -3.223,0.749 -2.404,1.202 2.19,0.134 0,0"
         style="fill:#1d1d1b;fill-opacity:1;fill-rule:nonzero;stroke:none"
         id="path2384" />
    </g>
    <g
       id="g2386"
       transform="matrix(0.35277777,0,0,-0.35277777,78.497488,43.280143)">
      <path
         d="M 0,0 C 2.018,1.248 6.122,0.508 10.051,0.881 6.122,0.508 4.46,-0.178 0,0"
         style="fill:#1d1d1b;fill-opacity:1;fill-rule:nonzero;stroke:none"
         id="path2388" />
    </g>
    <g
       id="g2390"
       transform="matrix(0.35277777,0,0,-0.35277777,141.45576,38.163133)">
      <path
         d="M 0,0 C 1.838,-0.429 3.998,-0.073 5.271,0.274 L 4.312,0.713 Z"
         style="fill:#1d1d1b;fill-opacity:1;fill-rule:nonzero;stroke:none"
         id="path2392" />
    </g>
    <g
       id="g2394"
       transform="matrix(0.35277777,0,0,-0.35277777,132.0434,37.942333)">
      <path
         d="m 0,0 c -1.981,-1.471 1.449,-0.766 5.165,-1.846 4.917,-0.285 10.049,0.883 14.936,0.819 l 2.972,0.812 C 17.234,0.283 6.973,0.739 0,0"
         style="fill:#1d1d1b;fill-opacity:1;fill-rule:nonzero;stroke:none"
         id="path2396" />
    </g>
    <g
       id="g2398"
       transform="matrix(0.35277777,0,0,-0.35277777,130.72945,40.514803)">
      <path
         d="M 0,0 C 3.642,-0.634 8.354,0.419 11.004,0.444 6.546,0.625 0.779,0.679 -2.334,0.759 -2.727,0.42 -0.921,0.216 0,0"
         style="fill:#1d1d1b;fill-opacity:1;fill-rule:nonzero;stroke:none"
         id="path2400" />
    </g>
    <g
       id="g2402"
       transform="matrix(0.35277777,0,0,-0.35277777,158.13209,37.878603)">
      <path
         d="m 0,0 c -6.189,-0.062 -14.785,1.079 -21.583,-0.773 3.15,-0.304 3.221,-0.749 8.135,-1.035 -3.681,-1.934 -7.571,0.26 -11.995,0.215 3.611,-0.41 -1.129,-1.238 -4.211,-1.382 -5.836,0.499 -15.109,0.296 -23.072,0.216 -3.429,-0.705 -14.682,0.41 -13.056,-1.469 -4.853,-0.162 -5.521,1.284 -9.128,1.694 -10.725,-2.228 -19.24,4.051 -30.782,1.367 0.71,1.123 -5.02,0.955 -7.252,1.044 -4.881,0.061 -16.415,0.171 -13.872,-1.925 3.325,-1.418 10.046,0.881 15.141,-0.517 8.773,-2.256 -9.162,-0.873 -9.307,-2.772 1.274,0.346 1.979,-1.32 5.871,-0.723 -8.283,-0.865 3.427,-2.086 -0.819,-3.246 9.481,-1.132 8.598,-1.141 13.407,-3.547 5.697,0.391 4.107,2.049 5.737,2.959 6.05,0.954 10.818,-1.233 16.064,-0.733 -3.967,-2.94 8.773,-2.257 14.963,-2.194 7.995,-0.145 2.694,2.593 11.15,2.343 4.208,-1.408 -8.566,-1.871 -3.015,-3.377 l 3.892,0.595 c 2.482,1.142 4.463,2.613 7.438,3.423 1.771,0.018 4.424,0.045 4.492,-0.401 -3.47,-0.482 -2.41,-1.587 1.239,-2.22 1.698,0.463 2.121,0.578 2.935,1.034 -7.141,3.165 7.506,0.185 12.525,2.023 14.656,2.598 7.677,-3.718 22.08,-2.348 -4.418,2.745 9.522,1.434 14.229,2.486 3.998,-0.071 5.448,-0.839 8.242,-1.704 1.099,0.301 4.185,0.456 4.653,0.99 C 21.869,-6.298 12.603,-2.831 0.599,0.216 0.273,0.146 -0.009,0.078 0,0"
         style="fill:#1d1d1b;fill-opacity:1;fill-rule:nonzero;stroke:none"
         id="path2404" />
    </g>
    <g
       id="g2406"
       transform="matrix(0.35277777,0,0,-0.35277777,147.43404,60.074313)">
      <path
         d="M 0,0 C -0.15,0.029 -0.189,0.08 -0.201,0.138 -0.324,0.119 -0.441,0.103 -0.569,0.083 Z"
         style="fill:#1d1d1b;fill-opacity:1;fill-rule:nonzero;stroke:none"
         id="path2408" />
    </g>
    <g
       id="g2410"
       transform="matrix(0.35277777,0,0,-0.35277777,159.61348,58.253893)">
      <path
         d="M 0,0 C 0.021,0.002 0.035,0.004 0.06,0.004 -0.006,0.059 -0.087,0.109 -0.104,0.174 -0.167,0.063 -0.167,0.063 0,0"
         style="fill:#1d1d1b;fill-opacity:1;fill-rule:nonzero;stroke:none"
         id="path2412" />
    </g>
    <g
       id="g2414"
       transform="matrix(0.35277777,0,0,-0.35277777,156.54597,58.703163)">
      <path
         d="M 0,0 C -0.152,0.051 -0.302,0.107 -0.437,0.174 -0.431,0.107 -0.247,0.053 0,0"
         style="fill:#1d1d1b;fill-opacity:1;fill-rule:nonzero;stroke:none"
         id="path2416" />
    </g>
    <g
       id="g2418"
       transform="matrix(0.35277777,0,0,-0.35277777,149.10903,60.189373)">
      <path
         d="M 0,0 C -0.383,0.086 -0.776,0.174 -1.181,0.264 -1.054,0.1 -0.604,-0.064 0,0"
         style="fill:#1d1d1b;fill-opacity:1;fill-rule:nonzero;stroke:none"
         id="path2420" />
    </g>
    <g
       id="g2422"
       transform="matrix(0.35277777,0,0,-0.35277777,156.95939,58.784813)">
      <path
         d="M 0,0 C -0.309,0.083 -0.804,0.153 -1.172,0.231 -0.815,0.114 -0.421,0.041 0,0"
         style="fill:#1d1d1b;fill-opacity:1;fill-rule:nonzero;stroke:none"
         id="path2424" />
    </g>
    <g
       id="g2426"
       transform="matrix(0.35277777,0,0,-0.35277777,165.39399,58.222943)">
      <path
         d="M 0,0 C -0.236,0.062 -0.496,0.121 -0.777,0.166 -0.794,0.127 -0.84,0.1 -0.836,0.049 Z"
         style="fill:#1d1d1b;fill-opacity:1;fill-rule:nonzero;stroke:none"
         id="path2428" />
    </g>
    <g
       id="g2430"
       transform="matrix(0.35277777,0,0,-0.35277777,45.958746,62.949593)">
      <path
         d="M 0,0 C 0.774,0.076 0.902,0.208 0.791,0.371 0.655,0.254 0.422,0.134 0,0"
         style="fill:#1d1d1b;fill-opacity:1;fill-rule:nonzero;stroke:none"
         id="path2432" />
    </g>
    <g
       id="g2434"
       transform="matrix(0.35277777,0,0,-0.35277777,52.65154,62.955093)">
      <path
         d="M 0,0 C -0.144,-0.032 -0.282,-0.076 -0.406,-0.123 -0.115,-0.076 0.083,-0.021 0,0"
         style="fill:#1d1d1b;fill-opacity:1;fill-rule:nonzero;stroke:none"
         id="path2436" />
    </g>
    <g
       id="g2438"
       transform="matrix(0.35277777,0,0,-0.35277777,48.80457,62.013893)">
      <path
         d="M 0,0 C -0.023,0.076 -0.072,0.139 -0.143,0.194 -0.212,0.139 -0.184,0.073 0,0"
         style="fill:#1d1d1b;fill-opacity:1;fill-rule:nonzero;stroke:none"
         id="path2440" />
    </g>
    <g
       id="g2442"
       transform="matrix(0.35277777,0,0,-0.35277777,95.667178,59.023573)">
      <path
         d="M 0,0 -0.458,0.172 C -0.38,0.082 -0.21,0.031 0,0"
         style="fill:#1d1d1b;fill-opacity:1;fill-rule:nonzero;stroke:none"
         id="path2444" />
    </g>
    <g
       id="g2446"
       transform="matrix(0.35277777,0,0,-0.35277777,104.48335,58.727973)">
      <path
         d="M 0,0 C 0.079,0 0.149,0 0.223,-0.002 0.149,0 0.08,0 0,0"
         style="fill:#1d1d1b;fill-opacity:1;fill-rule:nonzero;stroke:none"
         id="path2448" />
    </g>
    <g
       id="g2450"
       transform="matrix(0.35277777,0,0,-0.35277777,104.74482,58.730043)">
      <path
         d="M 0,0 C -0.18,0.002 -0.347,0.004 -0.519,0.004 -0.294,-0.002 -0.096,-0.019 0,0"
         style="fill:#1d1d1b;fill-opacity:1;fill-rule:nonzero;stroke:none"
         id="path2452" />
    </g>
    <g
       id="g2454"
       transform="matrix(0.35277777,0,0,-0.35277777,165.67649,58.568113)">
      <path
         d="M 0,0 C 0.606,0.311 2.11,0.408 2.145,0.8 L -0.801,0.979 C 0.246,0.691 0.781,0.268 0,0"
         style="fill:#1d1d1b;fill-opacity:1;fill-rule:nonzero;stroke:none"
         id="path2456" />
    </g>
    <g
       id="g2458"
       transform="matrix(0.35277777,0,0,-0.35277777,76.102658,63.777763)">
      <path
         d="M 0,0 C 0.956,0.029 1.436,0.091 1.675,0.174 1.099,0.121 0.507,0.068 -0.049,0.017 Z"
         style="fill:#1d1d1b;fill-opacity:1;fill-rule:nonzero;stroke:none"
         id="path2460" />
    </g>
    <g
       id="g2462"
       transform="matrix(0.35277777,0,0,-0.35277777,83.826548,62.540653)">
      <path
         d="M 0,0 C -0.028,-0.013 -0.06,-0.026 -0.085,-0.038 -0.036,-0.03 0,-0.024 0.05,-0.019 Z"
         style="fill:#1d1d1b;fill-opacity:1;fill-rule:nonzero;stroke:none"
         id="path2464" />
    </g>
    <g
       id="g2466"
       transform="matrix(0.35277777,0,0,-0.35277777,75.499578,63.913523)">
      <path
         d="M 0,0 C -0.111,-0.059 -0.235,-0.118 -0.3,-0.198 0.063,-0.184 0.083,-0.102 0,0"
         style="fill:#1d1d1b;fill-opacity:1;fill-rule:nonzero;stroke:none"
         id="path2468" />
    </g>
    <g
       id="g2470"
       transform="matrix(0.35277777,0,0,-0.35277777,145.70458,60.613103)">
      <path
         d="M 0,0 C -0.136,-0.026 -0.247,-0.055 -0.42,-0.08 -0.233,-0.061 -0.107,-0.032 0,0"
         style="fill:#1d1d1b;fill-opacity:1;fill-rule:nonzero;stroke:none"
         id="path2472" />
    </g>
    <g
       id="g2474"
       transform="matrix(0.35277777,0,0,-0.35277777,83.313218,62.345303)">
      <path
         d="M 0,0 1.455,-0.554 C 1.65,-0.467 1.85,-0.379 2.109,-0.263 2.377,0.174 0.702,0.135 0,0"
         style="fill:#1d1d1b;fill-opacity:1;fill-rule:nonzero;stroke:none"
         id="path2476" />
    </g>
    <g
       id="g2478"
       transform="matrix(0.35277777,0,0,-0.35277777,75.499578,63.913523)">
      <path
         d="M 0,0 C 0.38,0.201 0.964,0.321 1.66,0.401 L 0.869,0.702 C -1.064,0.668 -0.196,0.254 0,0"
         style="fill:#1d1d1b;fill-opacity:1;fill-rule:nonzero;stroke:none"
         id="path2480" />
    </g>
    <g
       id="g2482"
       transform="matrix(0.35277777,0,0,-0.35277777,45.373946,62.374253)">
      <path
         d="m 0,0 c 0.9,-0.315 -2.233,-0.819 -0.36,-0.949 l 1.853,0.701 C 1.186,-0.575 2.238,-0.967 2.448,-1.26 3.191,-0.609 0.072,-0.181 2.255,0.71 2.763,1.107 4.419,1.029 5.258,0.936 3.387,1.064 5.305,1.545 6.056,1.781 7.208,1.51 9.048,1.64 9.582,1.216 9.757,1.369 10.649,1.453 11.26,1.384 l 0.059,-0.218 c 1.375,0.191 -0.466,0.211 -0.114,0.439 0.994,0.075 2.55,-0.393 4.173,-0.363 -1.623,-0.03 -2.972,-0.334 -4.131,-0.578 2.958,-0.386 -0.522,-1.117 -1.183,-1.687 2.377,0.269 3.286,0.675 5.228,1.045 2.362,-0.452 -0.184,-1.611 -0.78,-1.68 2.159,0.321 4.42,1.029 5.578,1.273 -1.607,-0.86 -1.33,-1.133 -2.778,-1.826 1.731,-0.498 2.084,0.113 2.912,0.441 -0.483,-0.081 -1.229,-0.138 -1.405,0.032 2.058,-0.071 1.707,1.254 2.778,1.828 1.522,-0.358 4.42,-0.524 4.226,-1.303 l -0.02,0.83 c 1.782,0.202 0.926,-0.426 1.202,-0.696 0.665,0.567 -0.165,1.382 2.84,1.607 -0.461,-1.34 2.679,-0.114 2.596,-1.335 1.404,0.082 2.042,0.761 3.504,0.623 1.617,-0.689 -2.213,-1.651 -3.084,-1.447 -2.029,-0.038 0.266,0.561 -0.547,0.545 l -1.939,-0.371 c 1.082,-0.255 3.202,-0.548 2.943,-1.106 1.974,0.26 -1.589,0.577 0.576,0.898 l 1.305,-0.308 c 2.159,0.319 -0.454,0.934 2.363,1.1 -1.885,-0.592 3.056,0.004 2.886,-0.886 0.112,1.113 5.048,0.155 5.633,1.052 l -1.491,0.25 0.331,-0.494 c -1.622,-0.03 -2.971,-0.332 -4.649,-0.145 1.318,0.412 -0.451,0.932 1.082,1.295 2.88,0.668 0.769,-0.595 1.174,-0.586 L 44.82,0.211 43.265,0.68 c 1.784,0.203 4.219,0.25 6.683,0.187 3.64,-0.65 -0.446,-0.618 2.161,-1.234 1.165,0.244 0.882,0.518 2.535,0.439 -0.892,0.315 -1.591,-0.142 -2.213,-0.099 -0.799,0.705 2.967,0.336 2.798,0.997 0.679,-0.264 0.549,-0.544 0.013,-0.833 2.785,0.277 5.465,0.164 6.51,-0.702 l 1.201,0.855 c 4.768,-0.296 -3.259,-0.784 0.752,-1.317 1.654,-0.078 3.282,-0.045 4.005,0.302 l -1.433,0.026 c 1.096,0.466 1.012,0.797 2.765,1.107 1.246,-0.086 0.578,-0.652 2.083,-0.181 3.798,-0.479 1.165,-1.308 0.557,-2.094 2.773,-0.447 -1.4,-1.629 0.473,-1.266 l -0.505,0.191 2.872,1.13 c -2.696,0.945 -1.066,-0.876 -2.135,0.07 l -1.605,0.073 c 0.504,0.482 4.216,0.146 4.552,0.69 0.032,-0.281 -0.368,-0.936 -2.04,-0.972 l 1.001,-1.055 c 0.967,-0.1 1.606,0.6 2.138,0.127 1.442,-0.682 -2.106,-1.081 1.431,-1.353 3.788,-0.229 3.556,1.07 6.127,0.898 -0.263,0.236 -0.903,0.21 -1.705,0.244 0.837,0.357 -0.634,0.648 0.773,0.919 0.8,-0.708 3.51,-0.663 5.582,-0.644 -0.541,-0.387 0.788,-0.767 0.139,-0.99 1.05,0.094 2.019,0.213 2.468,0.535 -4.215,0.526 4.081,0.598 0.806,1.307 3.283,-0.037 3.915,-0.682 5.952,-1.055 -0.134,-0.214 -3.779,-0.444 -0.868,-0.746 3.346,0.746 -0.599,1.037 2.004,1.929 l -2.105,0.263 c -0.265,0.91 3.646,0.228 4.186,0.427 1.299,-0.228 -1.809,-0.255 -0.54,-0.872 1.938,-0.2 2.914,0.374 4.151,0.035 -1.206,-0.616 -0.437,-0.372 -1.81,-0.926 4.549,0.017 -0.232,-0.718 3.242,-1.101 1.103,0.118 0.401,0.654 2.179,0.519 -1.038,0.662 -0.906,0.882 -3.78,0.898 1.004,0.965 3.78,-0.226 5.788,0.356 -1.608,0.074 -0.504,0.192 -2.245,0.046 -0.235,0.803 -0.879,0.928 0.706,1.68 -1.867,-0.219 -2.676,-1.085 -5.352,-0.853 -0.736,0.818 3.28,0.635 3.313,1.699 1.33,0.538 4.568,0.092 6.044,-0.299 2.596,0.658 5.78,0.679 7.769,1.635 1.875,-0.309 6.56,0.599 10.101,0.326 0.542,-0.473 4.348,-0.309 2.173,-0.828 0.307,0.154 3.246,0.246 2.477,0.674 -0.302,-0.155 -0.634,-0.029 -1.268,-0.055 l 0.565,0.59 c 1.707,-0.244 3.618,0.51 5.256,0.154 0.534,-0.471 -3.076,-0.308 -1.974,-0.863 1.573,0.883 7.992,1.262 10.035,0.891 1.371,-0.119 1.534,-0.856 2.106,-0.936 l 2.304,0.062 c 0.272,-0.236 0.305,-0.519 0.735,-0.819 1.136,-0.164 1.908,0.083 2.612,0.218 3.007,-0.472 1.401,-1.072 -0.14,-1.564 l -1.699,0.247 c -1.24,-0.335 -3.015,-0.199 -1.972,-0.863 0.861,0.073 0.831,0.353 1.135,0.508 l 0.999,-0.383 c 1.004,0.293 3.782,0.448 3.485,0.965 2.035,-0.373 4.375,0.082 6.182,-0.338 -1.24,0.336 0.333,0.546 -0.032,0.955 l -2.173,0.155 c 1.739,0.146 4.249,0.536 5.888,0.181 -0.201,-0.327 -0.267,-0.435 0.564,-0.755 -1.169,0.447 3.043,0.59 0.506,1.157 -0.935,-0.183 -1.806,-0.254 -3.014,-0.203 -0.794,0.712 1.11,0.791 2.178,1.192 1.338,0.163 3.95,0.383 5.753,0.637 1.137,-0.164 1.472,-0.963 3.413,-0.492 -2.474,0.673 2.339,1.126 2.981,1.826 1.874,-0.307 3.041,0.591 4.545,0.019 -0.767,-0.246 -3.647,-0.227 -4.381,-0.754 -0.104,-0.5 0.636,-1.32 -2.209,-1.583 3.417,-0.251 2.009,0.429 3.582,0.634 L 180.23,2.559 c 0.532,0.199 -0.474,0.58 0.566,0.589 4.011,-0.183 4.716,-0.716 7.426,-1.345 -0.604,0.363 0.633,0.7 1.272,0.727 2.607,-0.455 -0.034,-1.064 1.564,-1.811 0.908,0.465 2.683,0.328 2.081,0.691 1.033,0.01 0.497,-0.189 1.236,-0.336 0.667,0.418 1.44,0.663 2.873,0.654 -0.129,-0.218 -0.331,-0.544 -1.703,-0.426 1.538,-0.183 2.103,-0.938 1.436,-1.356 l -2.507,0.283 c -1.139,-0.51 2.339,-0.219 2.242,-0.718 -1.105,-0.118 -1.939,0.2 -2.644,0.063 0.705,-0.537 2.875,-0.019 4.146,0.036 2.007,-0.091 1.272,-0.618 1.303,-0.901 3.413,0.855 -3.944,0.965 -0.766,1.773 1.204,0.62 4.247,0.538 6.388,0.663 -1.839,0.701 0.204,1.001 2.411,1.238 -2.876,0.016 -0.736,0.816 -4.114,0.354 l -0.067,0.564 c 1.439,-0.01 3.143,-0.254 4.581,-0.266 -0.298,-0.152 0.035,-0.278 -0.437,-0.372 l 4.286,0.254 -0.436,-0.371 c 2.64,-0.064 5.886,-0.491 7.461,-0.282 -1.274,-0.055 -2.375,0.498 -1.04,0.663 0.772,0.244 2.175,0.516 3.379,0.464 0.635,-0.646 5.184,-0.629 2.307,-1.284 3.712,0.336 2.341,0.456 5.889,0.854 L 226.987,2.79 c -0.3,0.517 1.675,1.382 -0.601,1.708 2.676,0.328 0.969,1.246 4.55,1.363 1.454,-0.313 -0.433,-1.047 -2.444,-1.177 1.012,-0.041 1.933,-0.326 2.98,0.031 0.766,-0.426 -1.907,-0.754 -1.806,-0.926 1.841,-0.027 -0.036,0.281 1.703,0.426 3.045,0.592 1.94,-0.871 4.851,-0.5 -0.637,-0.027 -1.769,0.138 -1.005,0.384 3.914,-0.011 2.177,0.517 5.019,0.781 1.605,-0.747 0.902,-1.556 3.473,-1.728 l -1.433,0.01 c 1.001,-0.383 2.137,-0.547 3.177,-0.535 5.349,0.652 9.765,1.797 15.283,2.387 L 258.76,4.822 c -0.668,0.256 1.647,0.319 1.612,0.602 l 1.233,-0.337 c 0.338,0.545 -2.773,0.518 -2.037,1.046 0.167,-0.066 0.57,-0.082 0.804,-0.037 l -1.14,0.164 c 2.577,-0.174 4.618,0.799 6.558,-0.074 -5.021,-0.11 -0.769,-1.59 -5.686,-1.872 2.604,0.218 0.463,-0.58 0.73,-0.818 1.373,-0.119 0.673,0.418 2.212,0.238 -0.035,-0.393 -3.348,-0.748 -1.875,-1.037 0.167,0.609 1.537,0.489 2.204,0.907 1.138,-0.165 -0.029,-0.39 0.472,-0.583 0.633,0.029 1.005,0.293 1.571,0.211 l -0.431,-0.375 c 3.173,-0.536 0.967,0.574 4.576,0.411 0.103,0.5 -1.003,0.382 -2.507,0.282 -0.764,1.098 4.651,1.19 4.353,2.38 3.412,0.183 -0.904,-0.462 2.004,-0.764 1.603,-0.744 -2.14,-0.8 -2.879,-1.326 l 3.014,-0.473 c -1.006,-0.964 -2.88,-0.653 -3.414,-1.527 2.241,-0.045 1.974,0.191 4.25,0.537 -3.68,0.727 1.603,0.6 -0.502,1.535 1.703,-0.244 1.169,-0.445 3.644,-0.445 -1.571,-0.21 -0.064,-0.783 -2.142,-0.8 3.344,0.072 2.442,0.282 5.783,0.353 1.041,0.683 -3.377,0.882 0.643,1.373 0.868,0.007 0.698,-0.25 0.189,-0.248 2.872,-0.266 -0.59,0.844 1.214,1.193 1.255,0.084 1.707,-0.184 1.189,-0.346 1.881,0.379 0.84,0.83 2.092,0.984 l -0.57,0.082 c 0.534,0.198 -0.932,1.163 1.776,1.208 1.976,0 1.357,-0.381 1.403,-0.609 1.536,0.236 2.716,0.037 3.769,-0.2 -0.106,0.133 0.011,0.268 0.478,0.272 2.609,0.218 1.5,-0.574 2.472,-0.673 3.717,-0.336 -0.464,1.255 3.681,1.29 l -4.815,0.218 c 0.201,0.329 0.305,0.829 -0.734,0.819 -0.098,-0.499 -1.807,-0.928 -3.415,-0.852 -0.463,0.579 4.319,0.644 1.608,1.272 0.971,-0.1 2.313,0.061 3.514,0.008 -1.205,-0.618 3.846,-0.119 1.769,-0.807 5.253,0.152 6.022,-0.275 10.839,0.18 -0.435,-0.373 -3.51,-1.357 -6.019,-1.075 l -0.207,0.346 c -3.141,-0.418 2.448,-0.391 1.877,-0.98 3.879,0.944 8.592,-0.448 13.34,-0.102 -0.835,0.316 0.107,0.501 0.308,0.826 -1.907,-0.081 -1.574,-0.21 -2.977,0.192 0.267,0.437 1.406,0.273 2.007,0.582 0.5,0.482 -1.437,0.007 -2.11,0.263 1.81,0.256 1.639,0.319 2.715,0.718 1.001,-0.381 0.865,-0.6 1.636,-1.027 4.482,-0.092 3.979,0.772 7.592,0.607 -2.004,0.091 0.939,-0.491 -1.238,-0.337 l 1.206,-0.052 c -3.112,-0.702 -8.464,-0.682 -7.931,-1.828 2.543,0.109 4.386,0.754 7.491,0.781 l -0.131,-0.217 c 2.245,-0.046 -0.034,0.28 0.5,0.482 2.509,0.391 3.246,-1.101 4.98,-0.284 l -2.568,0.175 c 1.938,0.472 -0.571,0.082 -0.104,0.845 3.447,0.573 9.403,0.188 14.285,0.753 -1.404,0.401 -1.802,0.418 -3.645,0.446 0.833,1.026 1.574,0.882 0.673,1.765 l -2.242,0.044 -0.034,0.954 c 0.613,0.017 1.221,-0.036 1.764,-0.127 0.309,0.599 3.401,-0.181 3.553,0.39 l -1.907,-0.08 c -0.936,0.49 1.309,0.444 2.647,0.607 -1.272,0.618 -4.148,-0.035 -6.857,-0.08 0.196,-0.346 -2.508,-1.064 0.131,-1.128 -0.033,-0.39 -1.607,-0.6 -2.645,-0.608 0.541,0.198 -2.037,1.045 0.405,1.326 -2.342,-0.453 -1.037,-0.008 -3.646,-0.226 0.366,0.263 -4.55,-0.018 -4.248,0.809 -0.829,-0.352 0.043,-1.219 -2.982,-1.26 0.735,-0.571 4.107,-0.653 1.846,-1.268 l 1.47,0.383 c 2.106,-0.264 -0.575,-0.592 2.174,-0.827 -0.806,0.036 -2.445,-0.283 -2.81,0.128 0.705,-1.211 -4.081,-0.602 -4.215,-1.492 -0.603,0.363 -1.405,0.4 -2.917,0.3 0.206,0.328 -0.629,0.646 0.542,0.873 0.97,-0.099 1.673,0.035 2.743,-0.237 -0.595,1.202 -3.907,0.378 -6.416,0.631 0.351,-0.097 0.451,-0.211 -0.243,-0.385 -1.533,0.182 -4.913,0.392 -3.944,0.964 L 304.393,10.6 c -0.035,0.283 1.102,0.119 1.573,0.211 l -4.312,0.025 c -1.008,0.383 1.467,0.383 1.901,0.755 l -3.109,-0.027 0.434,0.372 c -0.765,-0.245 -4.348,-0.363 -5.216,0.239 -3.41,-0.183 -3.347,-1.417 -7.962,-0.872 0.17,0.61 2.61,0.217 3.679,0.616 -0.899,0.211 -3.645,-0.226 -4.111,0.354 -3.312,-0.352 -2.946,-1.433 -4.552,-2.033 -2.707,-0.047 -0.299,0.518 -0.405,0.692 -0.8,0.035 -2.106,-1.084 -2.837,-0.266 -1.307,-0.444 -2.043,-0.971 -0.103,-1.172 -1.439,0.008 -3.48,-0.29 -3.844,-0.555 1.165,0.901 -1.644,0.355 -1.805,1.092 -2.18,0.156 -6.994,0.372 -9.034,-0.599 l 0.604,0.98 -2.544,-0.108 c -1.902,0.592 2.243,0.628 3.514,0.681 -3.448,0.103 -5.755,0.038 -8.865,0.011 0.906,-0.207 0.368,-0.41 0.801,-0.709 -1.068,-0.401 -2.539,-0.109 -3.647,-0.227 -0.267,0.237 -0.132,0.454 0.736,0.526 l -2.137,-0.125 c 0.17,0.608 -0.871,0.6 1.24,1.008 l -1.974,-0.191 c -2.177,0.154 0.097,0.499 0.633,0.701 l -3.443,0.099 c -1.234,-0.336 0.702,-0.537 -1.672,-0.708 -3.176,0.536 -7.228,0.327 -10.839,0.491 l 2.543,-0.564 c -2.176,0.155 -1.74,-0.818 -2.41,-1.235 -2.008,0.09 -4.716,0.045 -6.419,0.29 1.939,0.473 1.14,1.181 -0.668,1.601 -4.08,0.072 -3.078,-0.98 -5.352,-1.326 1.77,1.208 -2.846,0.408 -2.445,1.062 -5.184,-0.044 -10.399,-0.48 -15.754,-0.46 0.104,-0.174 1.64,-0.356 0.7,-0.538 -1.968,-0.191 -2.906,0.3 -3.174,0.538 -2.543,-0.11 -4.01,-0.492 -4.85,-0.846 1.106,0.117 1.206,-0.055 1,-0.383 -2.54,-0.107 -1.837,0.701 -4.247,0.139 -0.635,0.645 2.68,0.326 2.446,0.955 -2.243,0.045 -3.65,-0.229 -5.287,-0.547 -0.37,0.41 1.503,0.099 0.266,0.436 -3.472,-0.315 -7.66,-0.696 -10.268,-0.935 l -0.702,0.536 c -1.671,-0.035 -2.775,-0.154 -3.544,-0.4 -0.903,0.21 -0.199,0.347 0.67,0.418 -2.241,0.045 -4.985,-0.389 -6.259,-0.444 0.203,0.327 1.274,0.055 1.645,0.318 -2.809,0.128 -6.357,-0.945 -8.197,-0.245 0.239,0.088 0.511,0.105 0.763,0.105 -4.16,0.033 -7.785,-0.361 -12.305,-0.422 -4.143,0.637 -1.336,-0.835 -5.416,-0.764 -0.027,1.452 -5.549,0.082 -7.27,0.348 l 0.547,-0.21 c -2.008,-0.583 -4.784,-0.063 -6.19,0.336 -3.04,0.082 -7.592,0.065 -10.633,-0.524 l 0.604,0.306 c -2.512,-0.388 -4.079,0.074 -6.595,-0.316 0.069,0.108 1.008,0.29 0.035,0.39 C 108.224,9.918 95.878,8.965 83.807,9.12 60.695,9.441 31.914,9.66 9.167,8.498 9.167,8.498 -1.623,2.451 0,0"
         style="fill:#1d1d1b;fill-opacity:1;fill-rule:nonzero;stroke:none"
         id="path2484" />
    </g>
    <g
       id="g2486"
       transform="matrix(0.35277777,0,0,-0.35277777,144.85675,60.912163)">
      <path
         d="M 0,0 C -0.105,0.011 -0.203,0.02 -0.326,0.031 -0.203,0.009 -0.1,0 0,0"
         style="fill:#1d1d1b;fill-opacity:1;fill-rule:nonzero;stroke:none"
         id="path2488" />
    </g>
    <g
       id="g2490"
       transform="matrix(0.35277777,0,0,-0.35277777,125.7103,60.729203)">
      <path
         d="M 0,0 C 0.254,-0.007 0.511,0.006 0.767,0.021 0.515,0.031 0.263,0.031 0,0"
         style="fill:#1d1d1b;fill-opacity:1;fill-rule:nonzero;stroke:none"
         id="path2492" />
    </g>
    <g
       id="g2494"
       transform="matrix(0.35277777,0,0,-0.35277777,109.36815,61.447523)">
      <path
         d="M 0,0 0.969,0.057 C 0.549,0.053 0.245,0.032 0,0"
         style="fill:#1d1d1b;fill-opacity:1;fill-rule:nonzero;stroke:none"
         id="path2496" />
    </g>
    <g
       id="g2498"
       transform="matrix(0.35277777,0,0,-0.35277777,84.563778,62.441773)">
      <path
         d="m 0,0 c 0.368,-0.408 -1.542,-1.162 0.097,-1.518 5.75,-0.035 2.447,1.627 8.364,1.526 L 5.456,0.481 C 5.616,-0.256 3.51,-0.664 1.205,-0.727 L 0.5,-0.191 C 0.895,-0.032 1.316,0.097 1.755,0.21 0.886,0.275 1.05,-0.15 0,0"
         style="fill:#1d1d1b;fill-opacity:1;fill-rule:nonzero;stroke:none"
         id="path2500" />
    </g>
    <g
       id="g2502"
       transform="matrix(0.35277777,0,0,-0.35277777,85.259178,62.374253)">
      <path
         d="M 0,0 C -0.043,0.012 -0.098,0.025 -0.142,0.037 -0.163,0.028 -0.19,0.024 -0.216,0.019 -0.144,0.014 -0.084,0.008 0,0"
         style="fill:#1d1d1b;fill-opacity:1;fill-rule:nonzero;stroke:none"
         id="path2504" />
    </g>
  </g>
</svg>
