<?xml version="1.0" encoding="UTF-8" standalone="no"?>
<svg
   xmlns:dc="http://purl.org/dc/elements/1.1/"
   xmlns:cc="http://creativecommons.org/ns#"
   xmlns:rdf="http://www.w3.org/1999/02/22-rdf-syntax-ns#"
   xmlns:svg="http://www.w3.org/2000/svg"
   xmlns="http://www.w3.org/2000/svg"
   xmlns:sodipodi="http://sodipodi.sourceforge.net/DTD/sodipodi-0.dtd"
   xmlns:inkscape="http://www.inkscape.org/namespaces/inkscape"
   width="72.903519mm"
   height="34.540291mm"
   viewBox="0 0 72.903519 34.540291"
   version="1.1"
   id="svg3771"
   inkscape:version="1.0.1 (3bc2e813f5, 2020-09-07)"
   sodipodi:docname="ojito.svg">
  <defs
     id="defs3765" />
  <sodipodi:namedview
     id="base"
     pagecolor="#ffffff"
     bordercolor="#666666"
     borderopacity="1.0"
     inkscape:pageopacity="0.0"
     inkscape:pageshadow="2"
     inkscape:zoom="0.35"
     inkscape:cx="260.62757"
     inkscape:cy="119.56054"
     inkscape:document-units="mm"
     inkscape:current-layer="layer1"
     inkscape:document-rotation="0"
     showgrid="false"
     fit-margin-left="0.5"
     fit-margin-top="0.5"
     fit-margin-bottom="0.5"
     fit-margin-right="0.5"
     inkscape:window-width="1258"
     inkscape:window-height="1040"
     inkscape:window-x="156"
     inkscape:window-y="0"
     inkscape:window-maximized="0" />
  <metadata
     id="metadata3768">
    <rdf:RDF>
      <cc:Work
         rdf:about="">
        <dc:format>image/svg+xml</dc:format>
        <dc:type
           rdf:resource="http://purl.org/dc/dcmitype/StillImage" />
        <dc:title></dc:title>
      </cc:Work>
    </rdf:RDF>
  </metadata>
  <g
     inkscape:label="Capa 1"
     inkscape:groupmode="layer"
     id="layer1"
     transform="translate(-36.875622,-116.53294)">
    <path
       d="m 69.070229,148.11382 c -0.0423,-0.0162 -0.0854,-0.0314 -0.12311,-0.0455 l -0.69921,-0.17109 c -3.09704,-1.12325 -5.80566,-3.24944 -7.59954,-6.08401 -1.37724,-2.17734 -2.10538,-4.62386 -2.2927,-7.18291 -0.22754,-3.10162 1.29399,-5.52414 2.15512,-8.39858 1.51906,-5.06624 7.95478,-7.42491 12.815,-7.42491 1.90606,0 3.80295,0.37818 5.56613,1.0989 0.77788,0.32032 1.50389,0.87701 2.2927,1.13595 0.69745,0.22789 1.41076,0.11183 2.08951,0.49494 -0.37924,0.77788 0.33125,0.63677 0.69673,1.33985 0.14252,0.27482 0.29563,1.14971 0.35384,1.24072 0.93274,1.50601 2.16641,2.35091 2.88854,4.10281 0.72884,1.76883 1.10914,3.67206 1.10914,5.58588 0,1.48167 -0.22437,7.16245 -2.29694,7.28274 0.15946,1.49049 -0.73695,1.46544 -1.89618,1.68205 0.013,1.08938 0.002,1.77271 -1.04281,2.28847 -0.64276,0.31715 -1.11548,0.23354 -1.61643,0.68227 -0.0709,0.0635 -0.20532,0.69921 -0.40217,0.9077 -0.31785,0.34149 -1.02764,0.57432 -1.44744,0.77011 -1.96886,0.90699 -4.1275,1.37725 -6.29462,1.37725 -0.34572,0 -1.5688,-0.0917 -2.71991,-0.29493 -0.21696,0.0808 -0.33338,-0.0836 -0.48684,0.24483 -0.1397,-0.13723 -0.46214,-0.23706 -0.62935,-0.39158 -0.0741,0.34149 -0.35737,0.76306 -0.39829,1.07033 -0.0303,-0.4311 -0.0169,-0.87383 -0.0212,-1.31128 m -17.74013,-5.48463 c 0.57361,-0.0346 1.12536,-0.0381 1.39841,0.23248 v 0.69497 c -0.87242,0.096 -1.36737,-0.18733 -1.39841,-0.92745 m 0,-2.33081 c 0.10865,0.49954 -0.33514,0.44521 -0.70309,0.46532 0.1016,-0.28611 0.30162,-0.47766 0.70309,-0.46532 m -6.76311,-6.70948 c -10e-4,-0.004 0.004,-0.002 0.004,-0.004 0.22402,-0.10019 0.53728,0.0254 0.56974,0.78211 -1.01141,-0.0709 -0.88018,-0.63676 -0.57397,-0.77858 m 1.65241,-0.80716 c 0.48296,0.27409 -1.20191,0.33688 -1.63582,0.46564 0.34184,-0.877 0.61736,-0.4699 1.63583,-0.46566 m 3.96804,-2.55941 c 0.54116,0.0667 0.53658,0.62019 0.23283,0.92781 -0.67768,-0.19967 -0.26211,-0.34572 -0.23283,-0.92781 m -2.71356,0.0374 c -0.70944,0.85725 -0.78705,-0.71155 0,0 m 8.52311,-1.51906 c 0.74577,0.037 1.02834,0.52811 1.86972,0.46602 -0.5267,0.25471 -0.43568,1.12395 -1.40229,0.93275 -0.12595,-0.63324 -0.18592,-0.57962 -0.46743,-1.39877 m -11.79231,1.28659 c 0.0751,-0.32103 0.58279,-0.1965 0.93628,-0.23354 0.20884,0.81139 -0.76518,0.39511 -0.93628,0.23354 m 13.19036,-3.60821 c 0.0388,-0.58279 0.79234,-0.0713 0.93769,0 -0.0378,0.5782 -0.79164,0.0653 -0.93769,0 m 1.91277,-4.54519 c 0.99095,-0.51611 1.19027,1.75648 1.86936,2.32621 -1.22449,0.74507 -1.41922,-1.52752 -1.86936,-2.32621 m 34.43525,6.51334 c 0.0734,-0.89571 -0.54117,-2.97992 0.93239,-3.25473 0.33902,1.50213 -0.49742,1.69404 -0.93239,3.25473 m -0.0296,0.59125 c -0.88795,-0.44203 1.23683,0.61489 0,0 m 7.240411,3.02472 c 0.3122,-0.66181 1.03681,0.17991 1.39805,0.23389 -0.19508,0.54469 -1.02411,-0.1965 -1.39805,-0.23389 m 3.67947,-0.0868 c 0.007,0.68615 -1.41605,0.44062 -1.16593,-0.46179 0.7426,-0.20038 0.88618,0.20356 1.16593,0.46179 m -2.04364,0.78634 c 0.61242,-0.57397 1.35043,0.67063 0,0 m 1.34408,3.63749 c -1.49648,0.80292 -1.62736,-1.24389 -1.86866,-1.62701 0.80151,-0.55457 2.16852,0.3115 1.86866,1.62701 m -10.686021,2.17664 c -0.10584,-1.07809 -0.37254,-1.61114 0.93239,-1.62807 0.11077,0.9659 0.004,1.70744 -0.93239,1.62807 m -4.20088,0.93239 c -0.0579,0.25365 -0.4632,0.15804 -0.46637,0.46602 -0.6477,-0.10407 -0.0145,-0.73166 0.46637,-0.46602 m -6.95995,10.77136 c 3.05787,-0.26705 6.35776,-2.1523 9.25935,-3.14678 1.70674,-0.58667 2.99403,-1.8482 4.46546,-2.83492 1.61044,-1.07738 3.34575,-1.40264 4.917381,-2.5467 2.38477,-1.73602 4.44711,-3.73309 6.5532,-5.77674 1.20297,-1.15287 1.73778,-1.79775 1.99707,-2.0768 v -0.0751 c -0.25929,-0.27834 -0.7941,-0.92357 -1.99707,-2.07645 -1.08233,-1.04881 -2.20875,-2.08492 -3.26708,-3.15419 -0.53128,-0.53692 -0.94756,-1.12042 -1.58574,-1.49401 -0.55456,-0.32561 -1.29434,-0.25859 -1.83127,-0.63288 -0.33549,-0.23319 -1.16557,-1.21144 -1.73778,-1.60691 -1.90923,-1.32362 -4.10139,-3.05435 -6.23429,-3.96592 -1.10843,-0.4752 -1.88136,-1.07774 -2.61867,-2.01472 -2.35479,1.09891 -4.71099,-0.32843 -7.2143,-0.83996 -3.11044,-0.63253 -6.28615,-0.94509 -9.46186,-0.94509 -3.677,0 -8.16645,0.0462 -11.65683,1.33667 -1.90606,0.70309 -3.80153,1.43545 -5.68325,2.17135 -0.99095,0.38735 -1.86796,1.02411 -2.89666,1.32856 -0.82621,0.24165 -1.70004,0.20708 -2.49308,0.59478 -1.49578,0.72814 -2.89489,2.18511 -4.25238,3.15066 -0.27693,0.19509 -0.53587,0.40781 -0.80398,0.61136 0.83643,0.2413 1.66722,0.98214 2.86138,0.77047 -0.19121,0.38418 -0.67593,0.43251 -1.25483,0.32562 -0.57468,0.19543 -1.59844,-0.0579 -2.24332,0.066 0.11713,-0.32597 0.36019,-0.49813 0.6537,-0.58562 -0.17286,-0.073 -0.33337,-0.14393 -0.49142,-0.21448 -2.01189,1.57691 -3.83293,3.31928 -5.69101,5.09834 -1.20262,1.15288 -1.730728,1.79811 -2.003778,2.07645 v 0.0751 c 0.27305,0.27905 0.801158,0.92393 2.003778,2.0768 0.77047,0.73731 1.55469,1.4217 2.33856,2.10856 0.94121,-0.0737 1.95404,0.002 2.72063,0.0811 -0.23178,0.67415 -0.81563,0.87735 -1.56951,0.92533 0.87983,0.74719 1.766,1.48555 2.67229,2.22885 1.96215,1.61149 4.22028,2.78024 6.50734,3.85375 2.03235,0.95285 3.89043,2.18863 5.99969,2.921 4.91031,1.69968 10.09121,2.53964 15.28268,2.53964 2.87585,0 5.90162,-0.10795 8.7556,-0.35313"
       style="fill:#1d1d1b;fill-opacity:1;fill-rule:nonzero;stroke:none;stroke-width:0.352777"
       id="path2508" />
  </g>
</svg>
