<?xml version="1.0" encoding="UTF-8" standalone="no"?>
<svg
   xmlns:dc="http://purl.org/dc/elements/1.1/"
   xmlns:cc="http://creativecommons.org/ns#"
   xmlns:rdf="http://www.w3.org/1999/02/22-rdf-syntax-ns#"
   xmlns:svg="http://www.w3.org/2000/svg"
   xmlns="http://www.w3.org/2000/svg"
   xmlns:sodipodi="http://sodipodi.sourceforge.net/DTD/sodipodi-0.dtd"
   xmlns:inkscape="http://www.inkscape.org/namespaces/inkscape"
   width="87.783333mm"
   height="48.492355mm"
   viewBox="0 0 87.783333 48.492355"
   version="1.1"
   id="svg3846"
   inkscape:version="1.0.1 (3bc2e813f5, 2020-09-07)"
   sodipodi:docname="Ojo.svg">
  <defs
     id="defs3840" />
  <sodipodi:namedview
     id="base"
     pagecolor="#ffffff"
     bordercolor="#666666"
     borderopacity="1.0"
     inkscape:pageopacity="0.0"
     inkscape:pageshadow="2"
     inkscape:zoom="0.35"
     inkscape:cx="131.60405"
     inkscape:cy="63.067685"
     inkscape:document-units="mm"
     inkscape:current-layer="layer1"
     inkscape:document-rotation="0"
     showgrid="false"
     fit-margin-left="0.5"
     fit-margin-top="0.5"
     fit-margin-bottom="0.5"
     fit-margin-right="0.5"
     inkscape:window-width="1258"
     inkscape:window-height="1040"
     inkscape:window-x="26"
     inkscape:window-y="0"
     inkscape:window-maximized="0" />
  <metadata
     id="metadata3843">
    <rdf:RDF>
      <cc:Work
         rdf:about="">
        <dc:format>image/svg+xml</dc:format>
        <dc:type
           rdf:resource="http://purl.org/dc/dcmitype/StillImage" />
        <dc:title></dc:title>
      </cc:Work>
    </rdf:RDF>
  </metadata>
  <g
     inkscape:label="Capa 1"
     inkscape:groupmode="layer"
     id="layer1"
     transform="translate(-71.013096,-131.48001)">
    <g
       id="g2146"
       transform="matrix(0.35277777,0,0,-0.35277777,154.76865,155.76993)">
      <path
         d="m 0,0 c 0,-0.959 -1.303,-3.18 -5.131,-7.154 -6.693,-7.027 -12.639,-13.904 -20.227,-19.871 -4.996,-3.944 -10.209,-5.07 -15.341,-8.778 -4.676,-3.394 -8.622,-7.734 -14.048,-9.754 -9.226,-3.423 -19.655,-9.909 -29.384,-10.833 -9.076,-0.845 -18.67,-1.214 -27.818,-1.214 -16.511,0 -32.979,2.891 -48.602,8.743 -6.703,2.515 -12.608,6.769 -19.077,10.051 -7.279,3.697 -14.46,7.721 -20.699,13.264 -2.264,2.017 -4.494,4.021 -6.71,6.031 1.524,0.367 2.667,1.152 3.208,2.732 -1.883,0.195 -4.235,0.39 -6.591,0.359 -3.211,2.981 -7.727,6.031 -10.851,9.27 C -225.098,-3.18 -226,-0.959 -229,0 v 0.26 c 3,0.959 3.902,3.181 7.729,7.143 7.141,7.406 14.73,14.669 22.842,20.905 4.321,3.323 9.106,8.337 13.874,10.838 2.522,1.338 5.469,1.222 8.085,2.059 3.281,1.04 6.163,3.231 9.315,4.565 5.981,2.535 12.06,5.055 18.115,7.476 11.107,4.438 25.416,4.606 37.109,4.606 10.111,0 20.22,-1.08 30.114,-3.26 5.852,-1.293 11.454,-4.282 16.985,-4.282 1.996,0 3.99,0.391 5.978,1.391 2.34,-3.219 4.795,-5.305 8.333,-6.93 6.78,-3.135 13.754,-9.099 19.83,-13.655 1.825,-1.363 4.456,-4.729 5.527,-5.533 1.705,-1.284 4.06,-1.056 5.831,-2.183 2.029,-1.279 3.358,-3.291 5.044,-5.136 3.368,-3.676 5.726,-7.254 9.158,-10.861 C -1.303,3.441 0,1.219 0,0.26 Z m 8.705,6.504 c -0.123,0.148 0.236,0.33 0.051,0.553 -1.022,1.234 -2.662,3.537 -6.023,7.006 -1.221,1.287 -2.393,2.621 -3.691,3.956 -2.137,2.207 -4.284,4.489 -6.33,6.72 -0.352,0.388 -0.672,0.804 -1.016,1.214 -1.43,1.705 -3.188,3.824 -5.933,5.557 -2.076,1.32 -4.098,1.836 -5.492,2.168 -0.153,0.164 -0.298,0.329 -0.425,0.47 -1.428,1.56 -3.039,3.331 -4.813,4.651 -1.207,0.908 -2.474,1.892 -3.773,2.898 -5.35,4.143 -11.407,8.838 -17.756,11.776 -1.995,0.913 -3.192,1.923 -4.604,3.863 l -4.79,6.594 -7.278,-3.668 c -0.515,-0.259 -0.996,-0.367 -1.66,-0.367 -1.891,0 -4.584,0.902 -7.435,1.857 -2.242,0.754 -4.781,1.603 -7.48,2.197 -10.487,2.313 -21.313,3.487 -32.169,3.487 -10.911,0 -27.407,0 -40.64,-5.29 -5.322,-2.126 -11.121,-4.528 -18.26,-7.552 -1.847,-0.783 -3.463,-1.696 -4.887,-2.503 -1.322,-0.749 -2.572,-1.456 -3.495,-1.753 -0.421,-0.131 -1.127,-0.252 -1.877,-0.379 -2.01,-0.346 -4.759,-0.818 -7.644,-2.35 -4.071,-2.135 -7.608,-5.32 -10.727,-8.129 -1.49,-1.341 -2.895,-2.607 -4.156,-3.58 -8.359,-6.423 -15.493,-13.826 -22.395,-20.984 l -0.829,-0.859 c -3.044,-3.157 -4.86,-5.319 -5.943,-6.612 -0.266,-0.316 -0.528,-0.564 -0.693,-0.748 L -236,3.955 V 0.26 0 -3.697 l 2.542,-2.738 c 0.168,-0.186 0.402,-0.441 0.673,-0.76 1.081,-1.29 2.905,-3.45 5.944,-6.608 6.733,-6.974 13.553,-13.038 20.14,-18.9 7.173,-6.373 15.166,-10.805 22.737,-14.652 2.156,-1.094 4.297,-2.337 6.557,-3.653 4.194,-2.439 8.533,-4.962 13.505,-6.827 16.58,-6.209 34.069,-9.353 51.992,-9.353 9.992,0 19.933,0.435 28.75,1.256 8.217,0.781 16.234,4.447 23.305,7.684 3.062,1.404 5.953,2.725 8.597,3.705 5.321,1.98 9.342,5.26 12.894,8.152 1.256,1.024 2.439,1.987 3.6,2.829 1.686,1.222 3.639,2.132 5.902,3.191 3.07,1.433 6.556,3.058 10.051,5.817 8.149,6.409 15.116,13.718 21.848,20.792 3.309,3.432 5.206,5.723 6.224,6.961 0.187,0.221 -0.683,0.408 -0.556,0.555 L 10,-3.552 V 0 0.26 3.813 Z"
         style="fill:#1d1d1b;fill-opacity:1;fill-rule:evenodd;stroke:none"
         id="path2148" />
    </g>
    <g
       id="g2150"
       transform="matrix(0.35277777,0,0,-0.35277777,104.30404,155.04614)">
      <path
         d="M 0,0 C 0.193,1.396 -0.091,2.327 -0.603,3.036 -4.205,3.83 -3.525,-1.31 0,0"
         style="fill:#1d1d1b;fill-opacity:1;fill-rule:evenodd;stroke:none"
         id="path2152" />
    </g>
    <g
       id="g2154"
       transform="matrix(0.35277777,0,0,-0.35277777,98.458228,148.57419)">
      <path
         d="M 0,0 C -0.464,0.231 -2.861,1.86 -2.977,0 -2.521,-0.212 -0.118,-1.841 0,0"
         style="fill:#1d1d1b;fill-opacity:1;fill-rule:evenodd;stroke:none"
         id="path2156" />
    </g>
    <g
       id="g2158"
       transform="matrix(0.35277777,0,0,-0.35277777,90.4041,166.76633)">
      <path
         d="m 0,0 c 0.097,-2.358 0.451,-3.259 4.451,-2.954 v 2.219 C 2.451,0.118 1.823,0.104 0,0"
         style="fill:#1d1d1b;fill-opacity:1;fill-rule:evenodd;stroke:none"
         id="path2160" />
    </g>
    <g
       id="g2162"
       transform="matrix(0.35277777,0,0,-0.35277777,89.808115,164.6714)">
      <path
         d="M 0,0 C 1.169,0.059 2.579,-0.117 2.241,1.48 0.962,1.518 0.334,0.906 0,0"
         style="fill:#1d1d1b;fill-opacity:1;fill-rule:evenodd;stroke:none"
         id="path2164" />
    </g>
    <g
       id="g2166"
       transform="matrix(0.35277777,0,0,-0.35277777,149.11147,154.22516)">
      <path
         d="M 0,0 C -0.79,-2.873 3.74,-3.652 3.712,-1.464 2.818,-0.646 2.365,0.635 0,0"
         style="fill:#1d1d1b;fill-opacity:1;fill-rule:evenodd;stroke:none"
         id="path2168" />
    </g>
    <g
       id="g2170"
       transform="matrix(0.35277777,0,0,-0.35277777,147.8626,155.10262)">
      <path
         d="M 0,0 C -1.16,0.168 -3.459,2.841 -4.45,0.737 -3.261,0.622 -0.63,-1.735 0,0"
         style="fill:#1d1d1b;fill-opacity:1;fill-rule:evenodd;stroke:none"
         id="path2172" />
    </g>
    <g
       id="g2174"
       transform="matrix(0.35277777,0,0,-0.35277777,147.53741,157.88456)">
      <path
         d="M 0,0 C 0.777,-1.216 1.191,-7.729 5.955,-5.174 6.905,-0.986 2.549,1.771 0,0"
         style="fill:#1d1d1b;fill-opacity:1;fill-rule:evenodd;stroke:none"
         id="path2176" />
    </g>
    <g
       id="g2178"
       transform="matrix(0.35277777,0,0,-0.35277777,137.64238,162.14921)">
      <path
         d="M 0,0 C 2.975,-0.254 3.316,2.104 2.965,5.173 -1.182,5.116 -0.342,3.427 0,0"
         style="fill:#1d1d1b;fill-opacity:1;fill-rule:evenodd;stroke:none"
         id="path2180" />
    </g>
    <g
       id="g2182"
       transform="matrix(0.35277777,0,0,-0.35277777,82.862451,148.44292)">
      <path
         d="M 0,0 C 0.95,-0.434 2.208,-1.023 3.563,-1.598 2.64,-1.877 1.864,-2.426 1.497,-3.451 c 2.084,0.396 5.485,-0.514 7.289,0.16 1.779,-0.306 3.242,-0.115 3.833,1.078 C 7.188,-3.177 4.126,2.133 0,0"
         style="fill:#1d1d1b;fill-opacity:1;fill-rule:evenodd;stroke:none"
         id="path2184" />
    </g>
    <g
       id="g2186"
       transform="matrix(0.35277777,0,0,-0.35277777,86.272223,152.88675)">
      <path
         d="M 0,0 C -2.51,2.272 -2.267,-2.725 0,0"
         style="fill:#1d1d1b;fill-opacity:1;fill-rule:evenodd;stroke:none"
         id="path2188" />
    </g>
    <g
       id="g2190"
       transform="matrix(0.35277777,0,0,-0.35277777,132.40515,163.72123)">
      <path
         d="M 0,0 C 0,0.986 1.296,0.68 1.489,1.485 -0.042,2.333 -2.063,0.328 0,0"
         style="fill:#1d1d1b;fill-opacity:1;fill-rule:evenodd;stroke:none"
         id="path2192" />
    </g>
    <g
       id="g2194"
       transform="matrix(0.35277777,0,0,-0.35277777,83.650697,152.36136)">
      <path
         d="M 0,0 C -1.121,-0.119 -2.735,0.283 -2.974,-0.738 -2.437,-1.254 0.66,-2.578 0,0"
         style="fill:#1d1d1b;fill-opacity:1;fill-rule:evenodd;stroke:none"
         id="path2196" />
    </g>
    <g
       id="g2198"
       transform="matrix(0.35277777,0,0,-0.35277777,83.650697,157.49594)">
      <path
         d="M 0,0 C -0.244,5.717 -5.584,0.391 0,0"
         style="fill:#1d1d1b;fill-opacity:1;fill-rule:evenodd;stroke:none"
         id="path2200" />
    </g>
    <g
       id="g2202"
       transform="matrix(0.35277777,0,0,-0.35277777,111.30844,160.10903)">
      <path
         d="M 0,0 C -0.134,1.611 0.614,2.354 2.269,2.226 2.38,0.594 1.638,-0.155 0,0 m 2.003,-3.563 c -0.004,0.005 0,0.017 0,0.025 C 2.005,-3.54 2.008,-3.544 2.014,-3.548 2.008,-3.552 2.005,-3.56 2.003,-3.563 M 1.182,5.859 C 1.726,3.73 -0.834,4.829 -1.277,5.249 -1.082,6.093 0.242,5.77 1.182,5.859 M 8.35,5.604 c 2.252,0.538 2.729,-0.722 4.421,-0.746 -0.076,0.776 -0.236,1.545 -0.53,2.273 -0.393,0.954 -1.068,1.419 -1.58,2.247 -0.025,0.048 -0.115,0.533 -0.192,0.67 -0.201,0.389 -0.586,0.321 -0.379,0.739 -0.37,0.214 -0.76,0.15 -1.136,0.269 -0.439,0.144 -0.832,0.445 -1.261,0.615 -0.959,0.4 -2,0.603 -3.046,0.603 -2.644,0 -6.175,-1.289 -6.993,-4.052 C -2.828,6.649 -3.65,5.323 -3.532,3.63 c 0.1,-1.404 0.503,-2.734 1.252,-3.928 0.99,-1.551 2.463,-2.715 4.154,-3.33 l 0.451,-0.104 c 0.002,0 0.006,0 0.007,-0.002 L 3.19,-3.94 C 3.186,-3.944 3.176,-3.944 3.171,-3.946 c 0.628,-0.114 1.29,-0.168 1.476,-0.168 1.19,0 2.369,0.256 3.448,0.756 0.22,0.103 0.613,0.234 0.785,0.42 0.11,0.105 0.178,0.463 0.22,0.49 0.279,0.247 0.528,0.205 0.89,0.379 0.564,0.278 0.571,0.654 0.564,1.25 0.634,0.117 1.132,0.095 1.037,0.918 1.133,0.065 1.261,3.168 1.261,3.985 0,0.194 -0.046,0.388 -0.06,0.584 C 12.22,3.671 7.359,3.353 8.35,5.604"
         style="fill:#1d1d1b;fill-opacity:1;fill-rule:evenodd;stroke:none"
         id="path2204" />
    </g>
    <g
       id="g2206"
       transform="matrix(0.35277777,0,0,-0.35277777,112.12854,161.42577)">
      <path
         d="m 0,0 c 0.002,-0.243 0,-0.487 0.015,-0.726 0.026,0.176 0.175,0.399 0.21,0.586 0.102,-0.088 0.275,-0.142 0.35,-0.215 0.076,0.192 0.147,0.081 0.272,0.141 -0.315,0.053 -0.607,0.124 -0.84,0.212 z"
         style="fill:#1d1d1b;fill-opacity:1;fill-rule:evenodd;stroke:none"
         id="path2208" />
    </g>
    <g
       id="g2210"
       transform="matrix(0.35277777,0,0,-0.35277777,109.01708,154.54692)">
      <path
         d="M 0,0 C 0.039,0.324 0.35,0.781 0.423,1.142 0.596,0.982 0.953,0.871 1.104,0.729 1.273,1.088 1.391,0.902 1.625,0.988 1.018,1.1 0.435,1.236 -0.011,1.401 -0.009,0.934 -0.032,0.46 0,0"
         style="fill:#1d1d1b;fill-opacity:1;fill-rule:evenodd;stroke:none"
         id="path2212" />
    </g>
    <g
       id="g2214"
       transform="matrix(0.35277777,0,0,-0.35277777,108.4502,146.28974)">
      <path
         d="M 0,0 C 1.999,3.044 8.441,2.62 12.279,2.236 10.989,-1.523 5.252,0.682 0,0 m 17.926,3.699 c -0.072,0.102 -0.227,1.04 -0.379,1.328 -0.393,0.749 -1.156,0.596 -0.746,1.446 -0.737,0.401 -1.5,0.281 -2.24,0.517 -0.85,0.274 -1.63,0.881 -2.456,1.217 C 10.222,8.98 8.186,9.391 6.142,9.391 0.935,9.391 -5.951,6.86 -7.574,1.438 c -0.937,-3.086 -2.563,-5.682 -2.315,-9 0.2,-2.736 0.977,-5.359 2.454,-7.696 1.918,-3.024 4.822,-5.309 8.13,-6.511 l 1.098,-0.176 c 0.048,-0.022 0.503,-0.041 0.503,-0.06 v 0.025 l 1.353,-0.413 c -0.026,-0.015 -0.219,-0.011 -0.24,-0.025 1.225,-0.211 2.448,-0.312 2.818,-0.312 2.316,0 4.597,0.505 6.699,1.475 0.455,0.2 1.194,0.46 1.54,0.821 0.206,0.221 0.334,0.913 0.408,0.974 0.539,0.483 1.035,0.394 1.725,0.731 1.124,0.551 1.139,1.282 1.118,2.446 1.247,0.232 2.201,0.214 2.027,1.804 2.229,0.137 2.459,6.213 2.459,7.793 0,2.061 -0.408,4.094 -1.185,5.994 -0.774,1.883 -2.101,2.772 -3.092,4.391"
         style="fill:#1d1d1b;fill-opacity:1;fill-rule:evenodd;stroke:none"
         id="path2216" />
    </g>
    <g
       id="g2218"
       transform="matrix(0.35277777,0,0,-0.35277777,129.00243,158.46159)">
      <path
         d="m 0,0 c -2.243,-2.729 -2.499,2.269 0,0 m -8.164,-16.269 c -2.041,-0.539 -1.489,1.467 -2.959,1.49 0.218,1.55 3.505,0.153 2.959,-1.49 m -10.43,8.567 c 0.029,-2.643 0.005,-4.295 -2.524,-5.554 -1.562,-0.764 -2.702,-0.557 -3.914,-1.653 -0.175,-0.153 -0.492,-1.697 -0.958,-2.195 -0.184,-0.198 -0.424,-0.377 -0.69,-0.549 -0.822,-0.041 -1.771,0.05 -1.892,-0.713 0.055,-0.037 0.133,-0.082 0.203,-0.129 -0.402,-0.168 -0.787,-0.33 -1.108,-0.475 -4.773,-2.205 -9.952,-3.342 -15.218,-3.342 -0.828,0 -3.666,0.224 -6.445,0.713 0.038,0.015 0.427,0.027 0.471,0.049 l -3.293,0.934 v -0.045 c -2,0.043 -0.789,0.078 -0.89,0.119 l -1.403,0.258 c 0.2,0.336 0.358,0.669 0.463,0.982 0.354,-0.411 1.09,-0.751 1.386,-1.117 0.473,0.772 0.69,0.276 1.272,0.446 -1.353,0.406 -2.648,0.868 -3.616,1.366 -0.056,-0.518 -0.128,-1.039 -0.188,-1.56 l -0.169,0.034 c -7.504,2.725 -14.08,7.884 -18.427,14.757 -3.344,5.279 -5.116,11.209 -5.557,17.412 -0.557,7.522 3.131,13.395 5.227,20.373 3.672,12.277 19.281,18 31.062,18 4.632,0 9.225,-0.922 13.505,-2.663 1.883,-0.78 3.642,-2.127 5.549,-2.759 1.699,-0.549 3.426,-0.269 5.078,-1.203 -0.924,-1.875 0.803,-1.537 1.692,-3.244 0.336,-0.67 0.707,-2.789 0.858,-3.004 2.264,-3.66 5.24,-5.707 6.999,-9.953 1.767,-4.289 2.687,-8.906 2.687,-13.551 0,-3.589 -0.542,-17.359 -5.565,-17.656 0.382,-3.611 -1.781,-3.559 -4.595,-4.078 M -57.8,-38.597 c -0.028,0.137 -0.021,0.307 -0.032,0.463 l 1.658,1.719 c -0.347,-0.807 -1.007,-1.594 -1.626,-2.182 M -5.342,39.85 c -0.191,0.288 -0.705,3.192 -1.169,4.104 -1.216,2.328 -3.562,1.865 -2.317,4.438 -2.24,1.269 -4.61,0.887 -6.923,1.636 -2.606,0.861 -5.02,2.709 -7.593,3.77 -5.848,2.385 -12.132,3.641 -18.45,3.641 -13.375,0 -30.332,-5.422 -38.578,-16.872 -0.773,1.574 -1.685,2.665 -3.116,1.922 0.569,-1 1.009,-2.723 1.573,-4.304 -0.955,-1.672 -1.761,-3.441 -2.328,-5.34 -1.433,-4.774 -3.407,-9.166 -4.931,-13.652 -1.867,0.218 -2.84,1.351 -4.839,1.453 0.887,-2.61 1.084,-2.434 1.48,-4.454 1.471,-0.295 2.166,0.197 2.682,0.866 -1.14,-3.804 -1.853,-7.729 -1.534,-12.056 0.61,-8.472 3.028,-16.583 7.595,-23.792 5.94,-9.391 14.916,-16.438 25.176,-20.154 l 0.553,0.574 c 1.966,-2.497 14.148,-3.559 16.267,-3.559 7.191,0 14.339,1.561 20.857,4.569 1.4,0.636 3.747,1.415 4.804,2.545 0.653,0.689 1.094,2.798 1.338,3.003 1.649,1.493 3.221,1.217 5.352,2.27 3.464,1.699 3.492,3.968 3.452,7.578 3.846,0.72 6.804,0.64 6.275,5.577 6.869,0.396 7.618,19.222 7.618,24.123 0,6.349 -1.265,12.651 -3.673,18.512 -2.394,5.804 -6.484,8.599 -9.571,13.602"
         style="fill:#1d1d1b;fill-opacity:1;fill-rule:evenodd;stroke:none"
         id="path2220" />
    </g>
    <g
       id="g2222"
       transform="matrix(0.35277777,0,0,-0.35277777,118.87249,154.52488)">
      <path
         d="M 0,0 C 0.437,-1.646 -1.207,-1.209 -1.207,-2.419 1.052,-1.771 0.529,-3.914 2.427,-3.625 3.391,-1.674 2.346,-0.189 0,0"
         style="fill:#1d1d1b;fill-opacity:1;fill-rule:evenodd;stroke:none"
         id="path2224" />
    </g>
    <g
       id="g2226"
       transform="matrix(0.35277777,0,0,-0.35277777,89.316308,152.84093)">
      <path
         d="M 0,0 C -0.089,-1.855 -1.414,-2.318 0.745,-2.953 1.699,-1.979 1.729,-0.214 0,0"
         style="fill:#1d1d1b;fill-opacity:1;fill-rule:evenodd;stroke:none"
         id="path2228" />
    </g>
    <g
       id="g2230"
       transform="matrix(0.35277777,0,0,-0.35277777,84.85956,155.71483)">
      <path
         d="M 0,0 C -3.232,0.018 -4.107,1.313 -5.194,-1.486 -3.812,-1.073 1.547,-0.873 0,0"
         style="fill:#1d1d1b;fill-opacity:1;fill-rule:evenodd;stroke:none"
         id="path2232" />
    </g>
    <g
       id="g2234"
       transform="matrix(0.35277777,0,0,-0.35277777,138.19878,150.78282)">
      <path
         d="M 0,0 C 1.388,4.969 4.046,5.57 2.969,10.351 -1.72,9.484 0.228,2.85 0,0"
         style="fill:#1d1d1b;fill-opacity:1;fill-rule:evenodd;stroke:none"
         id="path2236" />
    </g>
    <g
       id="g2238"
       transform="matrix(0.35277777,0,0,-0.35277777,148.12616,155.62593)">
      <path
         d="M 0,0 C 4.305,-2.135 1.949,1.827 0,0"
         style="fill:#1d1d1b;fill-opacity:1;fill-rule:evenodd;stroke:none"
         id="path2240" />
    </g>
    <g
       id="g2242"
       transform="matrix(0.35277777,0,0,-0.35277777,138.1664,151.44601)">
      <path
         d="M 0,0 C -2.823,1.405 3.928,-1.957 0,0"
         style="fill:#1d1d1b;fill-opacity:1;fill-rule:evenodd;stroke:none"
         id="path2244" />
    </g>
  </g>
</svg>
