<?xml version="1.0" encoding="UTF-8" standalone="no"?>
<svg
   xmlns:dc="http://purl.org/dc/elements/1.1/"
   xmlns:cc="http://creativecommons.org/ns#"
   xmlns:rdf="http://www.w3.org/1999/02/22-rdf-syntax-ns#"
   xmlns:svg="http://www.w3.org/2000/svg"
   xmlns="http://www.w3.org/2000/svg"
   xmlns:sodipodi="http://sodipodi.sourceforge.net/DTD/sodipodi-0.dtd"
   xmlns:inkscape="http://www.inkscape.org/namespaces/inkscape"
   width="166.23932mm"
   height="131.10193mm"
   viewBox="0 0 166.23932 131.10193"
   version="1.1"
   id="svg3843"
   inkscape:version="1.0.1 (3bc2e813f5, 2020-09-07)"
   sodipodi:docname="logodejavu.svg">
  <defs
     id="defs3837" />
  <sodipodi:namedview
     id="base"
     pagecolor="#ffffff"
     bordercolor="#666666"
     borderopacity="1.0"
     inkscape:pageopacity="0.0"
     inkscape:pageshadow="2"
     inkscape:zoom="0.98994949"
     inkscape:cx="304.8784"
     inkscape:cy="347.48517"
     inkscape:document-units="mm"
     inkscape:current-layer="layer1"
     inkscape:document-rotation="0"
     showgrid="false"
     fit-margin-left="0.5"
     fit-margin-top="0.5"
     fit-margin-bottom="0.5"
     fit-margin-right="0.5"
     inkscape:window-width="1258"
     inkscape:window-height="1040"
     inkscape:window-x="104"
     inkscape:window-y="0"
     inkscape:window-maximized="0" />
  <metadata
     id="metadata3840">
    <rdf:RDF>
      <cc:Work
         rdf:about="">
        <dc:format>image/svg+xml</dc:format>
        <dc:type
           rdf:resource="http://purl.org/dc/dcmitype/StillImage" />
        <dc:title></dc:title>
      </cc:Work>
    </rdf:RDF>
  </metadata>
  <g
     inkscape:label="Capa 1"
     inkscape:groupmode="layer"
     id="layer1"
     transform="translate(-0.03510636,-110.58594)">
    <g
       id="g670"
       transform="matrix(0.35277777,0,0,-0.35277777,83.154811,167.26997)"
       style="fill:#2cffdf;fill-opacity:1">
      <path
         d="m 0,0 c 7,0 13.688,-1.345 19.949,-3.884 2.735,-1.134 5.414,-3.106 8.197,-4.024 2.483,-0.807 5.06,-0.398 7.473,-1.772 -1.341,-2.721 1.201,-2.22 2.495,-4.724 0.484,-0.969 1.056,-4.061 1.267,-4.384 3.31,-5.335 7.65,-8.323 10.221,-14.537 2.394,-5.799 3.83,-7.153 4.004,-13.435 l 8.215,-1.94 10.255,-0.887 c -0.865,5.583 -2.305,9.094 -4.456,14.321 -3.488,8.465 -9.471,12.553 -13.975,19.846 -0.283,0.429 -1.029,4.673 -1.705,6.006 -1.771,3.387 -5.21,2.719 -3.382,6.466 -3.264,1.858 -6.726,1.3 -10.1,2.4 -3.809,1.253 -7.34,3.951 -11.087,5.499 -8.543,3.484 -13.727,5.198 -22.949,5.198 -0.343,0 -1.943,-0.271 -2.287,-0.271 L 0,0.006 Z"
         style="fill:#2cffdf;fill-opacity:1;fill-rule:nonzero;stroke:none"
         id="path672" />
    </g>
    <g
       id="g674"
       transform="matrix(0.35277777,0,0,-0.35277777,165.77442,239.23526)"
       style="fill:#2cffdf;fill-opacity:1">
      <path
         d="M 0,0 C -2.541,3 -5.085,8.115 -7.651,12.194 L -0.056,0 Z"
         style="fill:#2cffdf;fill-opacity:1;fill-rule:nonzero;stroke:none"
         id="path676" />
    </g>
    <g
       id="g678"
       transform="matrix(0.35277777,0,0,-0.35277777,162.49228,234.38148)"
       style="fill:#2cffdf;fill-opacity:1">
      <path
         d="M 0,0 C 0.009,-0.009 0.009,-0.009 0.009,-0.025 0.551,-0.908 1.11,-1.791 1.652,-2.655 Z"
         style="fill:#2cffdf;fill-opacity:1;fill-rule:nonzero;stroke:none"
         id="path680" />
    </g>
    <g
       id="g682"
       transform="matrix(0.35277777,0,0,-0.35277777,37.378439,191.81595)"
       style="fill:#2cffdf;fill-opacity:1">
      <path
         d="M 0,0 C -0.344,8.337 -8.151,0.557 0,0"
         style="fill:#2cffdf;fill-opacity:1;fill-rule:nonzero;stroke:none"
         id="path684" />
    </g>
    <g
       id="g686"
       transform="matrix(0.35277777,0,0,-0.35277777,37.378439,184.32012)"
       style="fill:#2cffdf;fill-opacity:1">
      <path
         d="M 0,0 C -1.629,-0.178 -3.986,0.41 -4.334,-1.087 -3.558,-1.827 0.972,-3.779 0,0"
         style="fill:#2cffdf;fill-opacity:1;fill-rule:nonzero;stroke:none"
         id="path688" />
    </g>
    <g
       id="g690"
       transform="matrix(0.35277777,0,0,-0.35277777,39.144941,189.21833)"
       style="fill:#2cffdf;fill-opacity:1">
      <path
         d="M 0,0 C -4.71,0.026 -6,1.929 -7.586,-2.167 -5.558,-1.578 2.254,-1.265 0,0"
         style="fill:#2cffdf;fill-opacity:1;fill-rule:nonzero;stroke:none"
         id="path692" />
    </g>
    <g
       id="g694"
       transform="matrix(0.35277777,0,0,-0.35277777,88.865404,202.68832)"
       style="fill:#2cffdf;fill-opacity:1">
      <path
         d="M 0,0 C 1.026,-0.65 4.021,-2.479 3.275,1.091 1.984,0.922 0.213,1.294 0,0"
         style="fill:#2cffdf;fill-opacity:1;fill-rule:nonzero;stroke:none"
         id="path696" />
    </g>
    <g
       id="g698"
       transform="matrix(0.35277777,0,0,-0.35277777,108.54723,200.90756)"
       style="fill:#2cffdf;fill-opacity:1">
      <path
         d="M 0,0 C 0,1.442 1.903,1 2.174,2.175 -0.061,3.415 -3.019,0.499 0,0"
         style="fill:#2cffdf;fill-opacity:1;fill-rule:nonzero;stroke:none"
         id="path700" />
    </g>
    <g
       id="g702"
       transform="matrix(0.35277777,0,0,-0.35277777,116.18709,198.6114)"
       style="fill:#2cffdf;fill-opacity:1">
      <path
         d="M 0,0 C 4.344,-0.371 4.856,3.075 4.338,7.551 -1.711,7.471 -0.487,5.006 0,0"
         style="fill:#2cffdf;fill-opacity:1;fill-rule:nonzero;stroke:none"
         id="path704" />
    </g>
    <g
       id="g706"
       transform="matrix(0.35277777,0,0,-0.35277777,116.95671,182.98961)"
       style="fill:#2cffdf;fill-opacity:1">
      <path
         d="M 0,0 C 3.71,-1.843 0.889,-0.438 -0.442,0.226 -0.309,0.159 -0.184,0.095 0,0"
         style="fill:#2cffdf;fill-opacity:1;fill-rule:nonzero;stroke:none"
         id="path708" />
    </g>
    <g
       id="g710"
       transform="matrix(0.35277777,0,0,-0.35277777,116.80064,182.91002)"
       style="fill:#2cffdf;fill-opacity:1">
      <path
         d="M 0,0 C -0.228,0.117 -0.408,0.207 -0.495,0.248 -0.391,0.195 -0.213,0.108 0,0"
         style="fill:#2cffdf;fill-opacity:1;fill-rule:nonzero;stroke:none"
         id="path712" />
    </g>
    <g
       id="g714"
       transform="matrix(0.35277777,0,0,-0.35277777,88.17364,188.72501)"
       style="fill:#2cffdf;fill-opacity:1">
      <path
         d="M 0,0 C 3.287,0.941 2.532,-2.179 5.295,-1.771 6.702,1.084 5.175,3.255 1.748,3.532 2.398,1.132 0,1.756 0,0"
         style="fill:#2cffdf;fill-opacity:1;fill-rule:nonzero;stroke:none"
         id="path716" />
    </g>
    <g
       id="g718"
       transform="matrix(0.35277777,0,0,-0.35277777,74.405641,187.5151)"
       style="fill:#2cffdf;fill-opacity:1">
      <path
         d="M 0,0 C 0.058,0.483 0.508,1.144 0.612,1.677 0.877,1.457 1.393,1.278 1.609,1.078 1.868,1.61 2.048,1.312 2.398,1.457 1.474,1.618 0.629,1.83 -0.037,2.075 -0.032,1.384 -0.047,0.69 0,0"
         style="fill:#2cffdf;fill-opacity:1;fill-rule:nonzero;stroke:none"
         id="path720" />
    </g>
    <g
       id="g722"
       transform="matrix(0.35277777,0,0,-0.35277777,73.579684,175.45761)"
       style="fill:#2cffdf;fill-opacity:1">
      <path
         d="M 0,0 C 2.909,4.438 12.318,3.826 17.916,3.266 16.042,-2.226 7.678,0.988 0,0 m 1.412,-31.62 v 0.077 l 0.017,-0.031 C 1.412,-31.585 1.412,-31.603 1.412,-31.62 M 24.517,9.451 c -1.077,0.568 -2.187,0.403 -3.262,0.745 -1.248,0.4 -2.384,1.294 -3.593,1.789 -2.724,1.123 -5.711,1.713 -8.699,1.713 -7.613,0 -17.652,-3.679 -20.021,-11.604 -1.359,-4.509 -3.743,-8.295 -3.381,-13.134 0.293,-4.001 1.427,-7.837 3.595,-11.229 2.787,-4.43 7.03,-7.757 11.864,-9.513 l 1.692,-0.303 c 0,0 0.43,0 0.43,-0.019 v 0.019 l 2.092,-0.618 c -0.017,-0.004 -0.269,-0.004 -0.286,-0.019 1.798,-0.313 3.572,-0.466 4.119,-0.466 3.386,0 6.728,0.747 9.78,2.161 0.679,0.298 1.758,0.66 2.267,1.19 0.285,0.323 0.49,1.329 0.594,1.421 0.779,0.715 1.517,0.588 2.516,1.061 1.639,0.832 1.658,1.881 1.637,3.587 1.814,0.329 3.212,0.308 2.959,2.629 3.261,0.198 3.592,9.067 3.592,11.375 0,3.004 -0.598,5.983 -1.733,8.752 -1.14,2.749 -3.06,4.046 -4.506,6.403 -0.118,0.149 -0.345,1.517 -0.556,1.947 -0.583,1.087 -1.69,0.868 -1.1,2.113"
         style="fill:#2cffdf;fill-opacity:1;fill-rule:nonzero;stroke:none"
         id="path724" />
    </g>
    <g
       id="g726"
       transform="matrix(0.35277777,0,0,-0.35277777,130.63443,192.38131)"
       style="fill:#2cffdf;fill-opacity:1">
      <path
         d="M 0,0 C 1.134,-1.795 1.743,-11.299 8.692,-7.562 10.079,-1.461 3.718,2.571 0,0"
         style="fill:#2cffdf;fill-opacity:1;fill-rule:nonzero;stroke:none"
         id="path728" />
    </g>
    <g
       id="g730"
       transform="matrix(0.35277777,0,0,-0.35277777,77.755655,195.63415)"
       style="fill:#2cffdf;fill-opacity:1">
      <path
         d="M 0,0 C -0.201,2.353 0.883,3.442 3.291,3.253 3.467,0.871 2.383,-0.22 0,0 m 2.911,-5.197 v 0.041 c 0.011,0 0.011,0 0.014,-0.015 C 2.922,-5.181 2.922,-5.186 2.911,-5.197 M 1.709,8.557 C 2.503,5.45 -1.241,7.051 -1.877,7.666 c 0.283,1.231 2.21,0.756 3.586,0.891 m 11.24,-12.843 c 0.161,0.161 0.259,0.675 0.321,0.72 0.416,0.356 0.769,0.305 1.309,0.551 0.81,0.419 0.81,0.956 0.81,1.839 0.928,0.162 1.657,0.133 1.519,1.327 1.658,0.098 1.84,4.629 1.84,5.812 0,0.326 -0.064,0.648 -0.091,0.959 -0.545,-1.523 -7.961,-2.106 -6.474,1.265 3.276,0.794 3.983,-1.045 6.451,-1.09 -0.109,1.137 -0.35,2.257 -0.764,3.315 -0.589,1.398 -1.578,2.073 -2.325,3.284 -0.041,0.071 -0.169,0.777 -0.27,0.982 -0.29,0.567 -0.858,0.458 -0.554,1.078 -0.545,0.306 -1.122,0.207 -1.664,0.398 -0.636,0.202 -1.209,0.631 -1.846,0.892 C 9.822,17.635 8.3,17.92 6.777,17.92 2.911,17.92 -2.244,16.039 -3.433,12.012 -4.144,9.715 -5.347,7.79 -5.169,5.302 -5.026,3.253 -4.431,1.321 -3.339,-0.427 -1.901,-2.692 0.25,-4.38 2.718,-5.29 l 0.636,-0.146 c 0,-0.357 0.027,-0.705 0.051,-1.059 0.036,0.248 0.249,0.577 0.301,0.853 0.155,-0.122 0.398,-0.208 0.513,-0.321 0.114,0.265 0.224,0.143 0.379,0.207 -0.452,0.074 -0.879,0.178 -1.201,0.304 l 1.249,-0.286 c -0.01,-0.018 -0.034,0 -0.048,-0.018 0.921,-0.162 1.9,-0.248 2.179,-0.248 1.734,0 3.468,0.371 5.021,1.114 0.316,0.149 0.897,0.338 1.151,0.604"
         style="fill:#2cffdf;fill-opacity:1;fill-rule:nonzero;stroke:none"
         id="path732" />
    </g>
    <g
       id="g734"
       transform="matrix(0.35277777,0,0,-0.35277777,128.81819,187.94573)"
       style="fill:#2cffdf;fill-opacity:1">
      <path
         d="M 0,0 C 1.728,-0.157 5.58,-3.607 6.489,-1.077 4.805,-0.825 1.439,3.075 0,0"
         style="fill:#2cffdf;fill-opacity:1;fill-rule:nonzero;stroke:none"
         id="path736" />
    </g>
    <g
       id="g738"
       transform="matrix(0.35277777,0,0,-0.35277777,41.205444,185.08699)"
       style="fill:#2cffdf;fill-opacity:1">
      <path
         d="M 0,0 C -3.67,3.31 -3.316,-3.995 0,0"
         style="fill:#2cffdf;fill-opacity:1;fill-rule:nonzero;stroke:none"
         id="path740" />
    </g>
    <g
       id="g742"
       transform="matrix(0.35277777,0,0,-0.35277777,131.49295,189.08879)"
       style="fill:#2cffdf;fill-opacity:1">
      <path
         d="M 0,0 C 6.297,-3.109 2.85,2.675 0,0"
         style="fill:#2cffdf;fill-opacity:1;fill-rule:nonzero;stroke:none"
         id="path744" />
    </g>
    <g
       id="g746"
       transform="matrix(0.35277777,0,0,-0.35277777,133.34814,188.21616)"
       style="fill:#2cffdf;fill-opacity:1">
      <path
         d="M 0,0 C -0.422,0.704 -0.836,1.403 -1.265,2.119 -1.174,1.189 -0.679,0.469 0,0"
         style="fill:#2cffdf;fill-opacity:1;fill-rule:nonzero;stroke:none"
         id="path748" />
    </g>
    <g
       id="g750"
       transform="matrix(0.35277777,0,0,-0.35277777,118.52873,176.68784)"
       style="fill:#2cffdf;fill-opacity:1">
      <path
         d="M 0,0 C -6.839,-1.269 -3.98,-10.956 -4.324,-15.1 -2.3,-7.864 1.573,-6.981 0,0"
         style="fill:#2cffdf;fill-opacity:1;fill-rule:nonzero;stroke:none"
         id="path752" />
    </g>
    <g
       id="g754"
       transform="matrix(0.35277777,0,0,-0.35277777,55.930459,184.89064)"
       style="fill:#2cffdf;fill-opacity:1">
      <path
         d="M 0,0 C 4.484,-0.88 4.065,3.167 6.513,4.347 2.614,4.044 1.282,6.331 -2.153,6.503 -0.873,2.695 -0.577,2.942 0,0"
         style="fill:#2cffdf;fill-opacity:1;fill-rule:nonzero;stroke:none"
         id="path756" />
    </g>
    <g
       id="g758"
       transform="matrix(0.35277777,0,0,-0.35277777,46.029433,186.54254)"
       style="fill:#2cffdf;fill-opacity:1">
      <path
         d="M 0,0 C 1.387,1.423 1.451,3.988 -1.081,4.315 -1.205,1.603 -3.15,0.921 0,0"
         style="fill:#2cffdf;fill-opacity:1;fill-rule:nonzero;stroke:none"
         id="path760" />
    </g>
    <g
       id="g762"
       transform="matrix(0.35277777,0,0,-0.35277777,42.726798,179.74399)"
       style="fill:#2cffdf;fill-opacity:1">
      <path
         d="m 0,0 c -4.077,-0.72 -7.235,0.973 -10.174,2.36 -1.014,-1.325 -1.994,-2.692 -2.981,-4.049 2.694,-0.133 5.712,-0.578 7.578,0.127 C -3.004,-2.012 -0.866,-1.748 0,0"
         style="fill:#2cffdf;fill-opacity:1;fill-rule:nonzero;stroke:none"
         id="path764" />
    </g>
    <g
       id="g766"
       transform="matrix(0.35277777,0,0,-0.35277777,67.527676,188.24167)"
       style="fill:#2cffdf;fill-opacity:1">
      <path
         d="M 0,0 C 0.28,2.033 -0.136,3.403 -0.883,4.429 -6.143,5.582 -5.152,-1.912 0,0"
         style="fill:#2cffdf;fill-opacity:1;fill-rule:nonzero;stroke:none"
         id="path768" />
    </g>
    <g
       id="g770"
       transform="matrix(0.35277777,0,0,-0.35277777,75.067451,213.10009)"
       style="fill:#2cffdf;fill-opacity:1">
      <path
         d="M 0,0 C 0,0 0,0.017 -0.008,0.027 V 0 Z"
         style="fill:#2cffdf;fill-opacity:1;fill-rule:nonzero;stroke:none"
         id="path772" />
    </g>
    <g
       id="g774"
       transform="matrix(0.35277777,0,0,-0.35277777,49.288147,206.87066)"
       style="fill:#2cffdf;fill-opacity:1">
      <path
         d="M 0,0 V 3.249 C 0,4.489 -3.837,4.471 -6.498,4.312 -6.352,0.877 -1,-0.453 0,0"
         style="fill:#2cffdf;fill-opacity:1;fill-rule:nonzero;stroke:none"
         id="path776" />
    </g>
    <g
       id="g778"
       transform="matrix(0.35277777,0,0,-0.35277777,46.36669,202.29422)"
       style="fill:#2cffdf;fill-opacity:1">
      <path
         d="M 0,0 C 1.707,0.088 3.754,-0.163 3.275,2.168 1.416,2.224 0.495,1.336 0,0"
         style="fill:#2cffdf;fill-opacity:1;fill-rule:nonzero;stroke:none"
         id="path780" />
    </g>
    <g
       id="g782"
       transform="matrix(0.35277777,0,0,-0.35277777,57.460103,178.79245)"
       style="fill:#2cffdf;fill-opacity:1">
      <path
         d="M 0,0 C 0.659,-0.311 4.167,-2.697 4.35,0 3.668,0.329 0.166,2.722 0,0"
         style="fill:#2cffdf;fill-opacity:1;fill-rule:nonzero;stroke:none"
         id="path784" />
    </g>
    <g
       id="g786"
       transform="matrix(0.35277777,0,0,-0.35277777,131.45471,222.28539)"
       style="fill:#2cffdf;fill-opacity:1">
      <path
         d="M 0,0 C -0.886,-4.476 -7.389,-0.494 -10.79,-0.571 -10.131,3.69 -3.368,-0.045 0,0 m 1.148,11.418 c -9.161,3.249 5.997,9.999 0,0 m 19.884,-25.084 c -0.495,-0.824 -0.451,-2.223 -2.287,-1.719 -0.443,2.049 1.215,2.838 2.287,1.719 m 0.574,-26.804 c -0.713,0.268 -1.171,0.738 -1.142,1.714 1.206,0.264 1.075,-0.807 1.142,-1.714 m 2.481,29.089 v 2.839 c 3,0.183 2.76,0.587 4.715,-0.581 -1.979,-2.139 -2.879,-3.995 -1.335,-7.389 -2.066,-0.123 -2.282,-0.789 -4.069,0 0.423,1.656 1.693,2.816 2.614,3.986 -0.365,0.758 -1.925,1.059 -1.925,1.145 M -13.625,0.578 c 0.105,1.708 2.366,-0.558 0,0 m -15.903,-6.625 h 2.615 v -3.076 c -2,0.084 -3.044,1.076 -2.615,3.076 m 6.238,-3.076 c -1.434,-1.377 -2.512,-3.152 -4.537,-3.978 0.216,3.911 1.524,3.236 4.537,3.978 m -12.491,-6.262 c -1.478,0.795 -3.412,1.137 -5.112,1.719 0.956,2.715 7.408,0.565 5.112,-1.719 m -7.378,4.004 c -1.86,0.086 -2.737,-1.346 -2.844,1.138 0.851,0.894 3.232,0.823 2.844,-1.138 M -73.268,-34.18 c 1.9,-0.19 1.606,-2.603 1.696,-4.576 -3.902,-0.945 -2.943,3.245 -1.696,4.576 m -5.117,22.222 c 2.139,1.091 3.605,0.161 5.688,-1.143 -1.908,-2.284 0.822,-3.272 -1.13,-5.116 -2.538,1.052 -3.302,3.907 -4.558,6.259 M 42.388,23.95 c -0.003,4.001 1.596,8.282 1.655,12.485 -7.41,-0.898 -4.313,3.148 -6.216,7.017 -0.317,0.694 -3.292,5.322 -3.383,5.7 -1.884,8.488 -4.932,13.11 -8.916,18.179 1.955,2.041 3.925,4.062 5.836,6.104 4.803,4.977 7.571,8.337 9.063,10.127 l 0.984,0.818 3.676,3.945 v 5.157 L 30.392,92.999 C 29.069,91.426 26.455,88.354 21.379,83.059 11.604,72.805 1.944,62.773 -9.131,54.047 -16.419,48.3 -24.518,46.665 -32,41.25 -38.833,36.29 -44.84,29.954 -52.757,27.007 -66.23,22.006 -81.565,12.538 -95.765,11.195 -108.187,10.045 -115.312,9.6 -127.902,9.533 l -3.011,-8.858 v -17.606 l -2.434,-14.903 4.684,-17.305 c 3.024,-2.1 5.181,0.512 6.066,0.299 11.738,-2.55 16.775,-1.626 28.622,-1.553 l -3.719,44.031 15.175,-43.91 c 7.637,0.077 13.623,1.974 20.747,2.517 1.048,0.074 6.905,-1.563 8.406,-1.668 0.801,-0.067 3.104,-0.219 5.479,-0.373 L -63.084,7.287 c 0.154,0.065 0.279,0.132 0.414,0.186 l 26.961,-56.682 c 3.873,1.09 7.288,3.381 8.444,7.967 2.157,-8.649 15.36,-10.621 29.716,-10.477 l -33.687,75.793 c 0.047,0.018 0.076,0.054 0.111,0.083 l 18.861,-30.68 C -6.049,-4.164 4.397,-1.16 9.668,-5.69 8.864,-8.071 4.834,-9.744 2.262,-8.542 1.075,-8.216 0.528,-11.939 2.583,-11.381 2.511,-12.645 0.087,-12.623 0.087,-12.526 v 2.283 c -3,0.389 -7.522,-0.376 -10.139,0.598 l 25.371,-41.552 c 9.382,0.655 17.923,1.647 22.89,1.676 6.945,0.045 16.238,-2.135 22.229,0.398 L 28.922,-4.84 c -2.891,0.014 -8.282,3.68 -7.878,-1.99 -2.664,-0.38 -3.274,1.283 -4.548,2.279 -0.473,-0.307 -0.925,-0.599 -1.709,-0.558 -0.239,-1.38 1.017,-1.253 0.565,-2.858 -0.804,0.034 -1.624,0.094 -1.709,-0.575 -0.187,1.252 -1.361,4.639 -3.975,5.139 2.917,1.001 10.28,3.602 15.47,3.859 l -28.74,40.427 c 0.015,0.012 0.03,0.025 0.068,0.045 l 79.398,-90.961 c 7.396,-0.826 16.942,0.794 21.228,0.881 -2.553,3.134 -7.07,6.862 -10.015,9.498 0.536,-0.078 1.099,-0.146 1.661,-0.205 0.419,1.68 0.012,3.579 -0.749,5.546 -0.009,0.016 -0.014,0.025 -0.014,0.025 -1.828,4.618 -5.945,9.49 -7.841,12.494 -4.395,6.985 -8.76,13.98 -13.159,20.983 -3.873,6.161 -7.471,15.125 -12.25,20.398 -0.44,0.468 -12.358,9.42 -12.337,4.363"
         style="fill:#2cffdf;fill-opacity:1;fill-rule:nonzero;stroke:none"
         id="path788" />
    </g>
    <g
       id="g790"
       transform="matrix(0.35277777,0,0,-0.35277777,57.343969,228.72705)"
       style="fill:#2cffdf;fill-opacity:1">
      <path
         d="M 0,0 C 2.281,0.684 4.63,1.99 4.548,-1.704 3.29,-2.682 -0.095,-2.121 0,0 m -2.846,-15.385 c -1.382,-0.062 -2.733,-0.076 -3.412,0.572 0.098,3.299 5.349,2.325 3.412,-0.572 m -8.375,50.657 c 1.04,2.798 3.002,4.729 6.946,4.593 1.029,-4.936 -3.319,-4.42 -6.946,-4.593 m -54.737,-2.059 h 2.268 c 0.125,-2 -2.67,-2 -2.268,0 m -6.255,-5.553 h -1.135 v 1.144 h 1.135 z M -80.75,13.994 c -0.234,1.186 0.405,1.502 0.583,2.278 0.835,-0.293 1.422,-0.847 2.266,-1.145 -0.072,-1.239 -1.431,-1.21 -2.849,-1.133 m -10.779,22.235 c 0.96,1.997 1.773,-1.885 0,0 M 60.673,3.67 C 61.616,1.007 59.756,-3.253 56.688,-3.744 56.859,1.14 56.44,3.51 60.673,3.67 m -1.144,-16.51 c 1.728,2.093 1.913,-1.749 0,0 M 20.097,-30.871 34.89,11.897 31.484,-28.711 c 1.626,-0.566 3.01,-0.863 4.755,-0.736 7.425,0.49 13.992,2.66 21.475,5.66 h 0.023 c 0.227,0 1.067,3.074 2.364,3.367 0.735,-0.221 0.893,-1.505 1.701,-1.647 0.058,-1.33 -0.169,-2.593 -0.451,-3.576 2.645,-0.133 3.435,-1.697 6.066,-2.192 l 1.518,55.685 c -23.774,0.107 -43.783,4.194 -66.272,12.624 -9.793,3.672 -18.415,9.87 -27.86,14.662 -10.62,5.385 -21.116,11.258 -30.219,19.344 -3.292,2.935 -6.51,5.826 -9.739,8.744 2.516,0.468 4.437,1.554 5.296,4.06 -2.921,0.279 -6.62,0.587 -10.263,0.487 -4.708,4.359 -9.333,8.827 -13.904,13.547 -4.673,4.856 -7.101,7.846 -8.523,9.535 l -6.085,-2.4 -7.201,-1.574 v -0.484 l 2.856,-4.006 c 0.244,-0.262 0.166,-0.62 0.559,-1.089 1.57,-1.886 4.035,-5.052 8.502,-9.686 3.315,-3.432 6.567,-6.687 9.911,-9.869 0.014,-0.076 -0.033,-0.136 -0.01,-0.21 -10.574,2.095 -6.108,-4.563 -8.086,-9.964 -1.558,-4.199 -6.062,-4.199 -4.755,-10.621 -10.892,-0.303 -25.487,-33.914 -30.79,-42.251 -11.14,-17.518 -22.254,-35.031 -33.385,-52.551 0.621,0.981 10.765,0.07 11.889,0.07 2.975,0.027 6.363,0.622 9.835,1.315 l 31.171,35.724 c -1.151,0.481 -2.238,1.557 -2.14,2.749 1.837,0.254 2.359,-0.82 3.163,-1.585 l 48.059,55.043 c 0.028,0 0.042,-0.011 0.054,-0.028 l -63.903,-89.832 c 0.055,-0.009 0.128,0 0.175,-0.009 0.457,-0.065 5.256,-2.099 5.256,-2.099 4.685,0.047 5.388,-2.629 11.332,0.563 4.03,2.162 5.616,8.174 9.986,7.718 5.597,-0.588 10.957,-8.648 16.963,-10.67 l 18.354,29.877 c -0.879,0.205 -1.686,0.439 -2.33,0.715 0.487,2.274 2.554,3.356 5.09,3.771 l 26.514,43.188 c 0,0 0.02,-0.024 0.031,-0.024 0.016,0 0.037,-0.016 0.05,-0.03 L -50.739,-0.759 c 1.07,-0.196 2.081,-0.423 2.903,-0.711 -0.289,-2.223 -2.351,-3.341 -4.925,-3.817 l -13.341,-30.035 c 1.693,0.214 3.376,0.422 5.028,0.572 11.032,1.014 22.065,1.604 33.127,2.064 L 0.187,26.479 c 0.099,-0.014 0.2,-0.061 0.291,-0.091 l -15.605,-58.594 c 1.31,0.036 2.624,0.118 3.927,0.137 6.909,0.156 14.012,-1.357 20.559,-1.316 3.832,0.031 7.274,1.283 10.738,2.514"
         style="fill:#2cffdf;fill-opacity:1;fill-rule:nonzero;stroke:none"
         id="path792" />
    </g>
    <g
       id="g794"
       transform="matrix(0.35277777,0,0,-0.35277777,82.266166,139.53733)"
       style="fill:#2cffdf;fill-opacity:1">
      <path
         d="m 0,0 h -0.79 l 0.061,-1.159 C -0.114,-1.146 0.321,-0.953 0,0"
         style="fill:#2cffdf;fill-opacity:1;fill-rule:nonzero;stroke:none"
         id="path796" />
    </g>
    <g
       id="g798"
       transform="matrix(0.35277777,0,0,-0.35277777,58.535298,162.03895)"
       style="fill:#2cffdf;fill-opacity:1">
      <path
         d="M 0,0 C 2.266,-1.267 -5.56,-1.564 -7.584,-2.166 -6.001,1.915 -4.71,0.029 0,0 m 5.845,11.711 c -3.322,-3.982 -3.674,3.325 0,0 m 35.301,37.266 c 0.937,1.529 2.87,2.05 3.975,3.418 1.22,0.104 0.256,-2.032 0.58,-2.845 -1.128,-0.663 -3.197,-1.879 -4.555,-0.573 m -3.984,18.811 c -0.413,0.911 -2.793,-0.134 -2.278,1.707 1.495,0.149 2.85,0.201 2.278,-1.707 M 51.927,25.61 c -1.18,-0.251 -1.494,0.385 -2.255,0.572 0.084,1.653 2.675,1.369 2.255,-0.572 m 10.812,-3.432 c 0.089,-0.484 -0.013,-0.764 -0.111,-1.043 -0.479,-0.015 -1.001,-0.032 -1.502,-0.032 0.035,0.674 0.565,1.308 1.613,1.075 M 60.453,68.93 h -1.13 c -0.16,0.915 0.518,0.986 0.573,1.711 1.178,-0.327 1.194,-0.91 0.557,-1.711 M 56.47,80.895 c 1.614,-0.476 1.48,0.796 2.853,0.57 0.952,-2.713 -3.279,-3.15 -2.853,-0.57 M -92.37,-72.174 c 1.325,1.488 2.868,3.368 4.967,5.544 10.42,10.812 20.519,21.497 32.358,30.585 6.313,4.87 12.8,12.21 19.761,15.872 3.68,1.958 7.742,1.806 11.551,3.027 4.79,1.519 8.864,4.726 13.473,6.681 8.733,3.7 17.542,7.379 26.384,10.914 14.885,5.955 31.73,6.618 47.916,6.696 l 1.85,18.197 1.495,21.414 -0.955,15.869 c -0.485,-0.014 0.358,0.084 -1.642,0.02 v 1.531 h 1.691 l -0.921,17.165 1.923,17.153 c -0.081,-0.135 -0.148,-0.347 -0.212,-0.498 -0.822,0.49 -1.804,1.18 -1.711,2.18 H 67.4 l -0.734,21.29 c -0.668,-0.142 -1.401,-0.165 -2.238,-0.122 -2.398,2.92 -0.357,4.772 2.048,5.024 l -0.446,12.845 c -8.7,-11.381 -22.632,-30.977 -24.961,-41.285 0.596,-0.153 1.22,-0.279 1.78,-0.504 -0.596,-0.528 -1.295,-0.914 -2.035,-1.248 -0.184,-2.108 0.222,-3.727 1.6,-4.493 -0.726,0.402 -1.569,0.824 -2.398,1.267 l 9.27,-37.773 c 1.496,4.741 7.863,4.555 10.037,8.607 1.115,0 0.722,-1.547 2.265,-1.139 -3.818,-2.842 -7.773,-5.577 -12.214,-7.803 l 8.255,-33.647 -21.92,67.43 c -6.544,0.409 -4.691,-6.102 -5.272,-10.985 0.384,3.255 -8.178,-6.883 -8.081,-6.767 -1.535,-1.92 -2.909,-3.991 -4.235,-6.103 L 41.196,20.116 C 41.105,20.105 40.983,20.098 40.904,20.077 L 14.949,59.626 C 13.884,57.842 12.818,56.053 11.734,54.327 7.385,47.48 3.016,40.625 -1.334,33.783 L 18.15,15.922 C 17.951,15.857 17.786,15.791 17.588,15.725 L -4.039,29.526 c -3.177,-5.023 -6.378,-10.044 -9.574,-15.063 -3.421,-5.395 -6.801,-10.812 -10.184,-16.217 -1.569,-0.883 -3.038,-1.681 -4.168,-2.044 -0.586,-0.179 -1.626,-0.356 -2.715,-0.536 -2.945,-0.506 -6.952,-1.199 -11.174,-3.442 -5.933,-3.116 -11.101,-7.754 -15.653,-11.857 -2.168,-1.97 -4.231,-3.808 -6.073,-5.237 -12.179,-9.366 -22.593,-20.146 -32.652,-30.582 l -1.235,-1.3 c -4.449,-4.607 -7.107,-7.758 -8.684,-9.644 -0.391,-0.461 -0.682,-1.174 -0.932,-1.442 l -2.394,-2.986 h 9.644 z"
         style="fill:#2cffdf;fill-opacity:1;fill-rule:nonzero;stroke:none"
         id="path800" />
    </g>
    <path
       d="m 86.47865,130.88842 c -0.08855,0.72248 -0.637468,0.96802 -1.406525,1.00541 -0.259998,-1.04069 0.751769,-1.51412 1.406525,-1.00541 m -1.007181,23.52463 c 0.02363,-0.51082 0.676275,-0.39723 1.200504,-0.39723 0.193321,0.72249 -0.782463,0.27764 -1.200504,0.39723 m 3.214158,-17.23108 c 0.59408,-0.20179 0.351721,0.45332 0.395817,0.8061 h -0.601485 c -0.08396,-0.35278 0.13476,-0.53164 0.205668,-0.8061 m 3.801182,-12.72963 c 0.428625,1.3462 -0.137584,3.31611 -2.006249,3.01448 -0.623003,-1.61572 0.246592,-3.15842 2.006249,-3.01448 m -3.405365,29.56348 c 0.0441,-0.60537 0.833615,0.1898 0,0 m 0.602191,0.7994 c 0.246592,-2.42923 2.713567,0.0402 0,0 M 93.4192,144.43861 c 0.03916,1.30845 -0.823383,1.20156 -1.602316,0.80574 0.16016,-0.64135 0.702733,-0.90558 1.602316,-0.80574 m 8.08073,5.0927 c 0.0399,-0.60537 0.82868,0.19085 0,0 m -16.946036,5.70265 c 0,0.20779 -0.144285,3.01731 -0.267759,4.06859 5.1181,0.0159 9.533115,0.77611 14.54009,1.88419 4.101395,0.90311 7.957255,3.43323 11.820175,1.48907 1.19839,1.65488 2.5654,2.72944 4.38573,3.56623 3.03036,1.40229 6.57543,3.89784 9.04487,6.07095 v -0.004 c 0,0.33232 0.74895,0.65088 1.16664,0.96626 0.94192,0.70344 2.24613,2.43276 2.8,2.84868 0.87488,0.66358 2.07045,0.54046 2.97532,1.12466 1.04916,0.65475 1.71662,1.69474 2.58622,2.64548 1.73108,1.89441 3.57293,3.73556 5.34599,5.59117 0.87066,0.90347 1.49543,1.5995 1.9939,2.17558 l 1.86796,-0.19191 4.34093,-0.14076 -1.20297,-1.38747 -0.24377,-0.29704 c -0.5267,-0.63747 -1.50495,-1.81681 -3.21663,-3.58775 -0.63112,-0.66146 -1.29434,-1.3455 -1.95897,-2.03341 -1.10102,-1.13806 -2.24614,-2.3054 -3.29883,-3.46357 -0.19015,-0.2092 -0.37112,-0.42157 -0.55068,-0.63994 -0.73131,-0.87242 -1.64571,-1.96109 -3.05824,-2.84516 -1.06291,-0.68156 -2.10961,-0.95003 -2.8321,-1.11724 -0.0656,-0.0769 -0.1397,-0.15205 -0.2106,-0.23672 -0.73696,-0.80715 -1.57057,-1.71626 -2.48673,-2.40171 -0.62407,-0.46919 -1.27635,-0.97366 -1.94487,-1.49295 -2.75166,-2.13255 -5.87551,-4.54837 -9.14753,-6.0632 -0.35983,-0.16368 -0.66604,-0.34607 -0.94861,-0.55315 -1.23049,-2.32163 -2.26166,-4.41572 -2.82399,-5.31142 -0.89853,-1.42311 -1.81222,-3.1048 -2.76719,-4.87751 l -2.57563,1.64324 c 0.0688,0.0349 0.16122,0.0462 0.2226,0.0843 -0.32879,0.16969 -0.68121,0.32455 -1.05233,0.4452 l -5.62081,3.58458 c -0.0318,-0.005 -0.0667,-0.0155 -0.0956,-0.0251 l 3.6583,-3.35703 c -0.52599,-0.0787 -1.03187,-0.27693 -1.49648,-0.6477 0.69179,-0.4445 1.73813,-0.57362 2.73226,-0.48895 l 3.28013,-2.86067 c -1.50707,-2.80917 -3.1055,-6.11787 -4.86939,-8.23454 h -0.94474 c 0.0286,-1.05833 -0.0459,-0.496 -0.19826,-0.54575 0.10795,-0.27834 0.30515,-0.50552 0.52105,-0.56162 -0.0924,-0.13123 -0.19015,-0.28363 -0.28152,-0.40957 L 93.466825,155.283 c -0.02611,-10e-4 -0.04763,-0.0148 -0.06597,-0.0148 l 8.983135,-17.37184 c -1.04351,-1.24001 -2.14031,-2.33221 -3.311175,-3.15454 -0.03669,-0.031 -2.440517,-0.99906 -2.075392,-0.51082 -1.079148,-1.43333 -0.956027,-3.21275 -0.927452,-5.20382 L 87.7677,154.56227 93.867227,129.7059 c -0.12841,-3.43923 -0.182737,-4.94135 -2.172758,-8.11036 -0.757412,-1.19803 -1.508125,-2.40382 -2.265892,-3.6008 -0.09525,0.4886 -0.328435,0.85337 -0.54751,1.22767 -1.175808,0.34819 -0.871715,-1.54517 -0.606425,-2.00978 0.340077,-0.0744 0.541515,-0.0236 0.712965,0.0628 -0.498475,-0.78987 -0.998009,-1.58609 -1.501775,-2.37984 -0.786342,-1.25801 -1.668288,-2.6222 -2.615142,-3.80965 l -0.541515,15.27387 c 0.51929,-1.25695 2.399242,-2.83563 2.94499,-0.71896 h -1.395942 c 0.259996,1.41111 -0.508,1.78294 -1.007533,2.42111 -0.299156,-0.17004 -0.477663,-0.38206 -0.579615,-0.62054 l -0.165452,14.88582 c 0.389467,-0.0469 0.428271,0.94509 0.745067,0.82232 -0.101955,0.43004 -0.13829,1.43898 -0.691446,1.5367 l -0.321027,3.64102 -0.305152,0.0367 0.432858,2.84656 c 0,0 0.567971,3.76379 0.567971,4.02343"
       style="fill:#2cffdf;fill-opacity:1;fill-rule:nonzero;stroke:none;stroke-width:0.352777"
       id="path804" />
    <g
       id="g806"
       transform="matrix(0.35277777,0,0,-0.35277777,81.250023,214.82057)"
       style="fill:#2cffdf;fill-opacity:1">
      <path
         d="M 0,0 1.17,4.623 -0.348,15.529 0.41,29.09 c -1.922,0.16 -1.667,0.16 -4.173,0.599 -0.784,-0.294 -1.192,0.295 -1.737,-0.864 -0.501,0.465 -1.636,0.847 -2.226,1.378 -0.265,-1.217 -1.273,-2.695 -1.42,-3.797 -0.088,1.534 -0.022,3.095 -0.04,4.651 -0.162,0.062 -0.326,0.102 -0.469,0.166 l -2.453,0.59 c -10.964,3.985 -20.556,11.325 -26.918,21.348 -4.45,7.042 -7.774,11.632 -8.663,20.632 h -8.561 l -7.692,-3 h -3.494 c -0.123,0 0.727,-0.874 0.877,-2.814 0.887,-12.381 4.436,-23.936 11.096,-34.469 C -46.8,19.801 -33.688,9.662 -18.711,4.229 l 0.836,0.921 c 0.083,-0.102 0.225,-0.174 0.341,-0.281 -0.044,0.193 -0.028,0.447 -0.044,0.654 l 2.416,2.513 C -15.648,6.867 -16.619,5.739 -17.521,4.892 -14.728,2.256 -6.088,0.545 0,0"
         style="fill:#2cffdf;fill-opacity:1;fill-rule:nonzero;stroke:none"
         id="path808" />
    </g>
    <g
       id="g810"
       transform="matrix(0.35277777,0,0,-0.35277777,91.876431,206.35769)"
       style="fill:#2cffdf;fill-opacity:1">
      <path
         d="M 0,0 C 0.355,-3.147 0,-5.566 -3.048,-5.315 -3.4,-1.795 -4.267,-0.057 0,0 m 32.667,50.04 c 3.925,-0.072 5.906,0.41 5.679,-2.846 -3.52,0.036 -6.172,0.554 -5.679,2.846 m -55.034,-73.997 c 10.505,0 19.013,2.242 28.526,6.641 2.046,0.93 5.47,2.064 7.014,3.716 0.953,1.011 1.605,4.087 1.949,4.387 2.416,2.175 4.718,1.767 7.815,3.312 5.059,2.476 5.114,5.798 5.042,11.053 5.617,1.062 9.932,0.935 9.161,8.146 10.026,0.576 11.122,28.056 11.122,35.213 0,2.454 -0.304,3.464 -0.563,5.892 l -9.243,2 -4.207,-1.599 h -5.621 c -0.146,-8 -1.2,-22.453 -7.946,-22.852 0.565,-5.267 -2.608,-5.209 -6.716,-5.947 0.058,-3.874 0,-6.295 -3.684,-8.119 C 7.998,16.767 6.322,17.068 4.56,15.453 4.307,15.234 3.816,12.989 3.149,12.258 2.013,11.046 -0.501,10.206 -1.979,9.532 -8.963,6.317 -9.648,5.102 -17.347,5.102 c -0.017,0 -5.006,-0.419 -5.02,-0.419 l -1.234,-9.551 1.234,-8.801 -2.008,-10.32 c 0.018,0 1.99,0.032 2.008,0.032"
         style="fill:#2cffdf;fill-opacity:1;fill-rule:nonzero;stroke:none"
         id="path812" />
    </g>
    <g
       id="g814"
       transform="matrix(0.35277777,0,0,-0.35277777,68.484727,170.93694)"
       style="fill:#2cffdf;fill-opacity:1">
      <path
         d="m 0,0 c -3.313,-3.982 -3.668,3.312 0,0 m -29.892,-42.602 h 8.723 9.065 1.157 c -0.536,10 4.649,16.771 7.637,26.741 C 1.628,0.66 16.518,8.496 33.063,9.698 l 2.774,5.677 -0.469,4.897 C 15.573,18.904 -6.325,10.177 -16.422,-7.216 c -1.51,3.668 -2.964,7.612 -5.962,6.05 1.302,-2.311 2.159,-7.301 3.995,-9.874 -0.586,-1.356 -1.115,-2.234 -1.55,-3.689 -3.204,-10.708 -8.273,-17.873 -9.953,-27.873"
         style="fill:#2cffdf;fill-opacity:1;fill-rule:nonzero;stroke:none"
         id="path816" />
    </g>
  </g>
</svg>
